<svg width="21" height="20" viewBox="0 0 21 20" fill="none" xmlns="http://www.w3.org/2000/svg">
<path d="M4.573 0.854061C4.62599 0.85396 4.67898 0.853842 4.73197 0.853709C4.8772 0.853395 5.02242 0.853324 5.16765 0.853295C5.32444 0.853223 5.48123 0.852928 5.63802 0.852665C5.98071 0.852135 6.32341 0.851899 6.66611 0.851727C6.88027 0.851619 7.09443 0.851454 7.3086 0.851278C7.90205 0.850802 8.49551 0.850399 9.08897 0.850267C9.12693 0.850259 9.16489 0.85025 9.204 0.850241C9.24205 0.850233 9.2801 0.850224 9.3193 0.850215C9.3964 0.850198 9.4735 0.850181 9.5506 0.850163C9.58884 0.850154 9.62708 0.850146 9.66648 0.850137C10.2857 0.849983 10.9049 0.849301 11.5241 0.848391C12.1605 0.847463 12.7969 0.846978 13.4333 0.846932C13.7903 0.846897 14.1474 0.846674 14.5044 0.845963C14.8086 0.845359 15.1127 0.845162 15.4168 0.845484C15.5718 0.845636 15.7267 0.845603 15.8817 0.845052C16.024 0.84455 16.1663 0.844605 16.3085 0.845075C16.3835 0.845186 16.4586 0.844727 16.5336 0.844238C17.4438 0.849343 18.2568 1.17229 18.912 1.80788C19.2255 2.13963 19.4537 2.51028 19.6162 2.93474C19.6255 2.95897 19.6349 2.9832 19.6445 3.00816C19.8214 3.50048 19.8083 3.99896 19.8076 4.51475C19.8078 4.60007 19.808 4.68539 19.8082 4.77071C19.8087 5.00154 19.8088 5.23237 19.8087 5.4632C19.8086 5.65636 19.8088 5.84952 19.809 6.04268C19.8094 6.52471 19.8094 7.00674 19.8092 7.48877C19.8089 7.93206 19.8095 8.37534 19.8103 8.81863C19.811 9.22254 19.8112 9.62644 19.8111 10.0304C19.811 10.2712 19.8111 10.512 19.8117 10.7528C19.8121 10.9794 19.8121 11.206 19.8116 11.4326C19.8115 11.5154 19.8116 11.5982 19.8119 11.6809C19.8156 12.7142 19.597 13.5729 18.8716 14.3459C18.3034 14.8885 17.5258 15.2463 16.7346 15.2422C16.5963 15.2388 16.4582 15.2336 16.3201 15.2273C16.1281 15.2192 15.9361 15.2164 15.744 15.2126C15.5017 15.2074 15.2597 15.2008 15.0176 15.1889C14.1568 15.1002 14.1568 15.1002 13.3797 15.3687C13.178 15.6034 13.0694 15.8634 12.9722 16.1543C12.8864 16.3844 12.7563 16.588 12.6289 16.797C12.5803 16.8808 12.5318 16.9646 12.4836 17.0485C12.4595 17.0903 12.4354 17.1321 12.4106 17.1752C12.3462 17.2871 12.282 17.3991 12.2181 17.5113C12.1787 17.5803 12.1393 17.6493 12.0998 17.7182C12.0506 17.8043 12.0015 17.8904 11.9526 17.9767C11.6617 18.4844 11.3875 18.954 10.8003 19.1286C10.3794 19.1775 10.0207 19.1261 9.67908 18.8631C9.43664 18.6321 9.27623 18.3735 9.11371 18.0814C9.05936 17.9837 9.00434 17.8864 8.94937 17.7891C8.92118 17.7391 8.89302 17.6892 8.86489 17.6392C8.73444 17.4075 8.60079 17.1778 8.46631 16.9484C8.24266 16.5664 8.02099 16.1832 7.80017 15.7995C7.77694 15.7591 7.7537 15.7188 7.72976 15.6772C7.70931 15.6416 7.68886 15.6061 7.66779 15.5694C7.63887 15.5197 7.63887 15.5197 7.60937 15.4689C7.59555 15.4351 7.58172 15.4013 7.56747 15.3664C7.4966 15.2581 7.4966 15.2581 7.3491 15.2497C7.2883 15.2489 7.22749 15.2492 7.1667 15.2503C7.13346 15.2502 7.10022 15.25 7.06597 15.2499C6.99365 15.2496 6.92133 15.2499 6.84901 15.2505C6.73394 15.2515 6.61893 15.2513 6.50386 15.2508C6.25875 15.25 6.01366 15.2508 5.76855 15.2516C5.48622 15.2525 5.20391 15.2526 4.92158 15.2516C4.80931 15.2515 4.69707 15.2523 4.5848 15.2532C4.03363 15.2541 3.47801 15.2024 2.98535 14.9318C2.95984 14.9184 2.93433 14.905 2.90805 14.8911C2.12885 14.4706 1.61352 13.8381 1.32031 13.008C1.18591 12.5295 1.18616 12.0569 1.18734 11.5635C1.18712 11.4783 1.18684 11.3932 1.18653 11.308C1.18583 11.0783 1.18587 10.8486 1.1861 10.6189C1.18622 10.4264 1.18598 10.234 1.18574 10.0415C1.1852 9.587 1.18525 9.13254 1.1857 8.67806C1.18615 8.21083 1.1856 7.7436 1.18455 7.27637C1.18368 6.87372 1.18343 6.47107 1.18366 6.06841C1.18379 5.82859 1.1837 5.58877 1.18302 5.34894C1.18241 5.12325 1.18258 4.89756 1.18331 4.67187C1.18345 4.58958 1.18333 4.5073 1.18292 4.42501C1.17804 3.36827 1.41895 2.5101 2.15771 1.72625C2.82951 1.09279 3.67272 0.853439 4.573 0.854061ZM2.76562 2.5783C2.37985 3.0478 2.20577 3.55458 2.20856 4.15782C2.20842 4.19276 2.20827 4.2277 2.20811 4.26369C2.20771 4.37961 2.20786 4.49552 2.20802 4.61144C2.20785 4.69501 2.20765 4.77859 2.20741 4.86217C2.20689 5.0884 2.20687 5.31462 2.20697 5.54085C2.20701 5.73004 2.20682 5.91923 2.20663 6.10842C2.2062 6.55492 2.20618 7.00141 2.20642 7.44791C2.20665 7.9078 2.20617 8.36768 2.20534 8.82757C2.20465 9.22312 2.20442 9.61866 2.20455 10.0142C2.20462 10.2501 2.20451 10.4861 2.20397 10.722C2.20348 10.9439 2.20356 11.1659 2.20406 11.3878C2.20416 11.469 2.20405 11.5502 2.20373 11.6314C2.20077 12.4328 2.32198 13.0574 2.90127 13.6576C3.34144 14.0705 3.87591 14.2244 4.46805 14.2251C4.50504 14.2253 4.54204 14.2255 4.58015 14.2257C4.66021 14.2261 4.74026 14.2264 4.82032 14.2267C4.94708 14.2272 5.07383 14.2279 5.20059 14.2288C5.5609 14.2312 5.9212 14.2333 6.28152 14.2346C6.50214 14.2354 6.72276 14.2368 6.94338 14.2385C7.02735 14.2391 7.11133 14.2394 7.1953 14.2396C7.31274 14.2397 7.43015 14.2407 7.54757 14.2417C7.58216 14.2416 7.61674 14.2415 7.65238 14.2414C7.84908 14.244 7.98607 14.2655 8.15625 14.3752C8.22796 14.4668 8.22796 14.4668 8.28808 14.5758C8.31094 14.6164 8.33381 14.657 8.35736 14.6989C8.39316 14.7646 8.39316 14.7646 8.42969 14.8317C8.45535 14.8777 8.48109 14.9237 8.5069 14.9696C8.55988 15.0639 8.61259 15.1585 8.66513 15.2531C8.77879 15.4571 8.89731 15.6582 9.01562 15.8595C9.18339 16.1464 9.35019 16.4338 9.51606 16.7217C9.59009 16.8502 9.66425 16.9787 9.73843 17.1071C9.82382 17.255 9.90876 17.4031 9.99325 17.5514C10.0279 17.6117 10.0625 17.6719 10.0972 17.7321C10.1122 17.7589 10.1273 17.7857 10.1428 17.8133C10.2196 17.9458 10.2859 18.0501 10.4219 18.1252C10.5411 18.1313 10.5411 18.1313 10.6562 18.0861C10.772 17.957 10.8588 17.8188 10.9439 17.6682C10.9809 17.6029 10.9809 17.6029 11.0187 17.5364C11.0381 17.5019 11.0381 17.5019 11.0579 17.4668C11.1131 17.3687 11.1687 17.2708 11.2243 17.1728C11.253 17.1222 11.2817 17.0715 11.3105 17.0209C11.45 16.7746 11.5913 16.5294 11.7329 16.2844C11.7809 16.2012 11.8289 16.1181 11.877 16.035C11.9008 15.9937 11.9247 15.9524 11.9493 15.9099C12.027 15.7753 12.1046 15.6406 12.1821 15.5058C12.2085 15.46 12.235 15.4141 12.2614 15.3682C12.311 15.282 12.3607 15.1958 12.4103 15.1096C12.4551 15.0317 12.5002 14.954 12.5455 14.8764C12.588 14.8028 12.6295 14.7287 12.6701 14.6539C12.6895 14.6192 12.7089 14.5844 12.7288 14.5485C12.7454 14.5178 12.762 14.4872 12.7791 14.4556C12.8795 14.3307 12.9991 14.2685 13.1593 14.2472C13.256 14.2429 13.352 14.2423 13.4487 14.243C13.4853 14.2427 13.5219 14.2425 13.5597 14.2423C13.639 14.2419 13.7182 14.2418 13.7975 14.2419C13.9234 14.2421 14.0492 14.2416 14.175 14.2408C14.4425 14.2394 14.71 14.2389 14.9775 14.2385C15.2869 14.238 15.5962 14.2371 15.9055 14.2353C16.0288 14.2348 16.1522 14.235 16.2755 14.2351C17.0177 14.2331 17.6221 14.1148 18.1767 13.5826C18.6042 13.1147 18.7943 12.5636 18.7914 11.9378C18.7916 11.903 18.7917 11.8682 18.7919 11.8324C18.7923 11.717 18.7921 11.6016 18.792 11.4862C18.7921 11.4031 18.7924 11.3199 18.7926 11.2367C18.7931 11.0115 18.7931 10.7863 18.793 10.5611C18.793 10.3728 18.7932 10.1845 18.7934 9.99619C18.7938 9.55175 18.7938 9.10731 18.7936 8.66287C18.7933 8.20511 18.7938 7.74736 18.7947 7.2896C18.7953 6.89588 18.7956 6.50216 18.7955 6.10844C18.7954 5.87359 18.7955 5.63876 18.796 5.40392C18.7965 5.183 18.7964 4.9621 18.7959 4.74118C18.7958 4.66037 18.7959 4.57956 18.7963 4.49876C18.799 3.75273 18.7045 3.06041 18.1624 2.49849C17.6225 2.00856 17.0521 1.8628 16.3399 1.86499C16.2874 1.86487 16.2349 1.86472 16.1823 1.86454C16.0389 1.86414 15.8955 1.86422 15.7521 1.86439C15.5971 1.86448 15.4421 1.86413 15.287 1.86384C14.9837 1.86334 14.6803 1.86327 14.377 1.86336C14.1303 1.86343 13.8837 1.86336 13.637 1.8632C13.6018 1.86317 13.5667 1.86315 13.5305 1.86313C13.459 1.86308 13.3876 1.86303 13.3162 1.86298C12.6469 1.86256 11.9777 1.86264 11.3084 1.86288C10.6967 1.86308 10.085 1.86264 9.47328 1.8619C8.84451 1.86114 8.21576 1.86082 7.58699 1.86097C7.23426 1.86104 6.88152 1.86095 6.52879 1.86039C6.22851 1.85993 5.92823 1.85987 5.62795 1.86035C5.47488 1.86058 5.32182 1.86062 5.16876 1.86015C5.02837 1.85973 4.888 1.85985 4.74762 1.8604C4.67334 1.86055 4.59907 1.86013 4.52479 1.85968C3.86425 1.86381 3.21855 2.07927 2.76562 2.5783Z" fill="black" fill-opacity="0.75"/>
</svg>
