<?xml version="1.0" encoding="UTF-8"?>
<svg version="1.1" xmlns="http://www.w3.org/2000/svg" width="512" height="512">
<path d="M0 0 C2.9985468 1.48386991 5.87203206 3.10148865 8.7578125 4.79394531 C9.81460205 5.39037842 10.8713916 5.98681152 11.96020508 6.60131836 C14.0911532 7.80551467 16.21732997 9.01819787 18.33837891 10.23974609 C21.50295711 12.05994754 24.69020644 13.83408242 27.88720703 15.59643555 C30.01575533 16.77029332 32.13911148 17.95313142 34.26171875 19.13769531 C40.62664593 22.68479551 47.00390967 26.20956144 53.3828125 29.73144531 C54.31516724 30.24624954 54.31516724 30.24624954 55.26635742 30.77145386 C64.79969896 36.03304428 74.36228169 41.23839027 83.94311523 46.41308594 C91.07836693 50.2703025 98.1772175 54.18827593 105.26171875 58.13769531 C111.62665052 61.68479807 118.00428829 65.20886869 124.3828125 68.73144531 C125.0013913 69.07331879 125.61997009 69.41519226 126.2572937 69.76742554 C132.86765406 73.41984213 139.48691446 77.0529013 146.140625 80.62597656 C147.21683105 81.20436279 148.29303711 81.78274902 149.40185547 82.37866211 C151.40127301 83.45066549 153.40274687 84.5188469 155.40673828 85.58227539 C170.90420198 93.88852953 170.90420198 93.88852953 174.2578125 98.91894531 C174.52523804 102.01742554 174.52523804 102.01742554 174.54833984 105.88134766 C174.55505707 106.58576492 174.56177429 107.29018219 174.56869507 108.01594543 C174.5876996 110.34566291 174.59160053 112.67509264 174.59375 115.00488281 C174.60017654 116.62529621 174.6069048 118.24570844 174.61392212 119.86611938 C174.62590123 123.26396372 174.62960233 126.66170635 174.62841797 130.05957031 C174.62821481 134.40987321 174.65551019 138.75952258 174.68996239 143.10967064 C174.71222033 146.45717351 174.71625585 149.80451887 174.71519852 153.15208817 C174.71755641 154.75564449 174.72639061 156.35920504 174.74186325 157.96268845 C174.76150071 160.20817303 174.75569534 162.45224569 174.74365234 164.69775391 C174.74650238 165.97443939 174.74935242 167.25112488 174.75228882 168.5664978 C174.17316857 172.49281369 173.02474773 174.13016066 170.2578125 176.91894531 C167.05607996 178.51981158 163.73204191 178.4181162 160.2578125 177.91894531 C157.4477779 176.1253062 155.74840782 174.90013596 154.2578125 171.91894531 C154.13924614 170.31623551 154.08075126 168.70889178 154.05249023 167.10205078 C154.03254501 166.10116425 154.01259979 165.10027771 153.99205017 164.06906128 C153.96698143 162.44401169 153.96698143 162.44401169 153.94140625 160.78613281 C153.92062515 159.67916046 153.89984406 158.57218811 153.87843323 157.43167114 C153.81290259 153.88582733 153.75403636 150.33990777 153.6953125 146.79394531 C153.65213063 144.39419781 153.60851645 141.99445804 153.56445312 139.59472656 C153.45721762 133.70288018 153.35545778 127.810958 153.2578125 121.91894531 C149.38331096 124.04964978 145.50966439 126.18189897 141.63671875 128.31542969 C140.32606602 129.0371829 139.01520214 129.75855283 137.70410156 130.47949219 C135.79172411 131.53115291 133.88005983 132.5840956 131.96875 133.63769531 C131.33515564 133.98662842 130.70156128 134.33556152 130.04876709 134.69506836 C126.76205897 136.5114866 123.49230659 138.35246743 120.24316406 140.23535156 C119.60093903 140.60696411 118.95871399 140.97857666 118.29702759 141.3614502 C116.52068389 142.39282521 114.7477853 143.43012712 112.97509766 144.46777344 C110.2578125 145.91894531 110.2578125 145.91894531 108.2578125 145.91894531 C108.26780525 146.93252609 108.26780525 146.93252609 108.27799988 147.96658325 C108.34443118 155.00697059 108.38964571 162.04726869 108.42260742 169.08789062 C108.4376827 171.71455503 108.45814616 174.34119431 108.48413086 176.96777344 C108.52056826 180.74583136 108.53755188 184.52355608 108.55078125 188.30175781 C108.56626511 189.47384796 108.58174896 190.64593811 108.59770203 191.85354614 C108.59982529 202.16743376 108.59982529 202.16743376 105.2578125 206.91894531 C102.78125 208.76269531 102.78125 208.76269531 99.6328125 210.41894531 C98.38595132 211.08548045 97.13992973 211.75358741 95.89453125 212.42285156 C95.17958496 212.80199707 94.46463867 213.18114258 93.72802734 213.57177734 C90.81406054 215.16095197 87.95403102 216.83158584 85.08984375 218.50878906 C82.87502273 219.79138039 80.66017884 221.07393223 78.4453125 222.35644531 C77.38425293 222.98421875 76.32319336 223.61199219 75.22998047 224.25878906 C69.0777867 227.77487913 64.3961998 229.89050552 57.2578125 229.91894531 C54.24975387 228.70292161 52.82354577 227.8537542 51.14883423 225.08648682 C50.17172999 222.70953693 49.98313118 220.98742863 49.93896484 218.42578125 C49.91909515 217.54517029 49.89922546 216.66455933 49.87875366 215.75726318 C49.86142685 214.34456146 49.86142685 214.34456146 49.84375 212.90332031 C49.81470078 211.44687103 49.81470078 211.44687103 49.7850647 209.96099854 C49.72534741 206.86373646 49.6789147 203.76643706 49.6328125 200.66894531 C49.59462552 198.56736672 49.55557336 196.46580366 49.515625 194.36425781 C49.41965219 189.21594664 49.3355919 184.06756219 49.2578125 178.91894531 C48.67628418 179.24991211 48.09475586 179.58087891 47.49560547 179.921875 C36.34965469 186.2592127 25.18307512 192.55808765 13.9453125 198.73144531 C13.00349121 199.25254883 12.06166992 199.77365234 11.09130859 200.31054688 C10.22199707 200.78588867 9.35268555 201.26123047 8.45703125 201.75097656 C7.69221436 202.17096924 6.92739746 202.59096191 6.1394043 203.02368164 C4.2578125 203.91894531 4.2578125 203.91894531 2.2578125 203.91894531 C2.5878125 258.03894531 2.9178125 312.15894531 3.2578125 367.91894531 C25.04197891 356.26740961 25.04197891 356.26740961 46.67431641 344.359375 C52.23493458 341.25904924 57.80918455 338.18330029 63.3828125 335.10644531 C64.31820358 334.58987366 64.31820358 334.58987366 65.27249146 334.06286621 C73.70272699 329.40879137 82.15579421 324.79991921 90.6328125 320.23144531 C98.31137406 316.09288451 105.92939577 311.86301871 113.5078125 307.54394531 C126.6169451 300.07311211 139.93165796 292.99288653 153.2578125 285.91894531 C153.27183105 284.00432495 153.27183105 284.00432495 153.28613281 282.05102539 C153.32605589 277.30767129 153.39182153 272.56496419 153.46533203 267.82202148 C153.49352814 265.77067385 153.51474943 263.71921784 153.52880859 261.66772461 C153.55025674 258.71574477 153.59691698 255.76506601 153.6484375 252.81347656 C153.64966614 251.89871048 153.65089478 250.9839444 153.65216064 250.04145813 C153.74874351 245.8266125 153.89584919 243.50285454 156.15942383 239.85131836 C159.11582489 237.12881523 161.18230731 237.00853115 165.0703125 236.77832031 C168.15967422 236.97692214 169.91543312 237.9314719 172.2578125 239.91894531 C174.46133555 243.22422988 174.52051371 244.28685279 174.56420898 248.13720703 C174.58019638 249.20196259 174.59618378 250.26671814 174.61265564 251.36373901 C174.61801834 252.51375397 174.62338104 253.66376892 174.62890625 254.84863281 C174.63793472 256.03111603 174.6469632 257.21359924 174.65626526 258.43191528 C174.67078322 260.93521588 174.67965831 263.43855456 174.68334961 265.94189453 C174.69524477 269.77213477 174.74441824 273.60076401 174.79492188 277.43066406 C174.8043859 279.86164577 174.81162103 282.29263739 174.81640625 284.72363281 C174.83593857 285.8695993 174.85547089 287.0155658 174.87559509 288.19625854 C174.83047873 296.14698088 174.83047873 296.14698088 171.93579102 300.04907227 C170.61019165 300.97465942 170.61019165 300.97465942 169.2578125 301.91894531 C168.67708984 302.32540283 168.09636719 302.73186035 167.49804688 303.15063477 C166.95470703 303.44156006 166.41136719 303.73248535 165.8515625 304.03222656 C165.20558105 304.38454346 164.55959961 304.73686035 163.89404297 305.09985352 C163.18908691 305.47327881 162.48413086 305.8467041 161.7578125 306.23144531 C160.1456349 307.10607965 158.53367119 307.9811083 156.921875 308.85644531 C155.58044434 309.57960938 155.58044434 309.57960938 154.21191406 310.31738281 C150.35238012 312.40982436 146.51243807 314.53698017 142.67196655 316.66415405 C142.07010529 316.99750763 141.46824402 317.33086121 140.84814453 317.67431641 C140.23827698 318.01211121 139.62840942 318.34990601 139.00006104 318.69793701 C129.32284309 324.05420581 119.61958536 329.35905865 109.8828125 334.60644531 C102.2042501 338.74500657 94.58625933 342.97492565 87.0078125 347.29394531 C77.90707975 352.47964883 68.70461507 357.45820781 59.4576416 362.37640381 C51.4936741 366.61488825 43.5936431 370.94753524 35.7578125 375.41894531 C31.92816532 377.59217895 28.0943205 379.75784755 24.2578125 381.91894531 C23.68041321 382.244776 23.10301392 382.57060669 22.50811768 382.90631104 C18.74527886 385.0269973 14.971636 387.1264888 11.18457031 389.20361328 C9.95646657 389.88071081 8.73158314 390.56368751 7.51025391 391.25292969 C5.80090394 392.21618364 4.07834421 393.15587853 2.35546875 394.09472656 C1.37070557 394.64040283 0.38594238 395.1860791 -0.62866211 395.74829102 C-5.91680316 397.73657897 -9.96690593 397.60774943 -15.11865234 395.60888672 C-16.21902832 395.00222168 -17.3194043 394.39555664 -18.453125 393.77050781 C-19.05851608 393.44271332 -19.66390717 393.11491882 -20.28764343 392.77719116 C-22.23990387 391.71513226 -24.17824452 390.6300949 -26.1171875 389.54394531 C-27.47764297 388.79770926 -28.83889703 388.05292736 -30.20092773 387.30957031 C-33.49242492 385.50833799 -36.77349441 383.6891522 -40.050354 381.8614502 C-42.25975156 380.63061513 -44.47529359 379.41107751 -46.69140625 378.19238281 C-49.45217919 376.66960599 -52.20671746 375.13630978 -54.95703125 373.59472656 C-61.24553599 370.07178937 -67.55657897 366.58957207 -73.8671875 363.10644531 C-74.80035797 362.59123322 -74.80035797 362.59123322 -75.75238037 362.06561279 C-85.28516514 356.80428156 -94.8471955 351.59920934 -104.42749023 346.42480469 C-111.56274193 342.56758812 -118.6615925 338.6496147 -125.74609375 334.70019531 C-131.48520489 331.50185515 -137.23439252 328.32178897 -142.98574829 325.14553833 C-144.2365117 324.45475889 -145.4871432 323.76374053 -146.73764038 323.07247925 C-153.39485144 319.39328532 -160.06214771 315.73593141 -166.765625 312.14160156 C-167.85987793 311.55419189 -168.95413086 310.96678223 -170.08154297 310.36157227 C-172.13279713 309.26305959 -174.18638177 308.16888343 -176.24267578 307.07983398 C-187.73996941 300.9233815 -187.73996941 300.9233815 -189.7421875 296.91894531 C-189.8271025 295.03255412 -189.8493805 293.14316016 -189.83984375 291.25488281 C-189.83500977 289.57265625 -189.83500977 289.57265625 -189.83007812 287.85644531 C-189.81750977 286.09300781 -189.81750977 286.09300781 -189.8046875 284.29394531 C-189.80017578 283.11058594 -189.79566406 281.92722656 -189.79101562 280.70800781 C-189.77920217 277.77827025 -189.76273008 274.84863259 -189.7421875 271.91894531 C-191.37590805 271.9355999 -191.37590805 271.9355999 -193.04263306 271.95259094 C-203.31254024 272.05399962 -213.58234568 272.12892648 -223.85264015 272.17800617 C-229.13260407 272.20408707 -234.41216344 272.23945804 -239.69189453 272.29614258 C-244.78827255 272.35051546 -249.88426173 272.38037719 -254.98090744 272.39333153 C-256.9241892 272.40256189 -258.86744996 272.42058692 -260.81056595 272.4475956 C-263.53514648 272.48395626 -266.25812558 272.48888777 -268.98291016 272.48657227 C-269.78420349 272.50454865 -270.58549683 272.52252502 -271.41107178 272.54104614 C-275.48022613 272.50368959 -278.00666474 272.11627177 -281.24203491 269.53971863 C-283.7421875 266.91894531 -283.7421875 266.91894531 -284.50390625 264.41894531 C-284.36958464 259.89442794 -284.24351404 257.60130644 -281.4921875 253.85644531 C-276.71756072 250.49250372 -272.17589276 250.77920486 -266.48535156 250.80541992 C-265.24089516 250.80520088 -265.24089516 250.80520088 -263.97129822 250.80497742 C-261.2334429 250.80567319 -258.49565591 250.81344992 -255.7578125 250.82128906 C-253.85780881 250.82315443 -251.95780464 250.82457777 -250.05780029 250.82557678 C-245.06010609 250.82939259 -240.06244101 250.8392149 -235.0647583 250.85028076 C-229.06669212 250.86231478 -223.06861619 250.86690158 -217.07054138 250.87273407 C-207.96106984 250.88242713 -198.85166218 250.90159026 -189.7421875 250.91894531 C-189.7421875 234.08894531 -189.7421875 217.25894531 -189.7421875 199.91894531 C-194.15980469 199.97695313 -198.57742187 200.03496094 -203.12890625 200.09472656 C-206.65679466 200.12689342 -210.18464151 200.15400292 -213.71259308 200.17769623 C-217.43394005 200.20407387 -221.15471541 200.2393058 -224.87573242 200.29614258 C-228.46138463 200.35056745 -232.04648341 200.38038724 -235.63251686 200.39333153 C-236.99889652 200.40255295 -238.36524669 200.42056112 -239.73139 200.4475956 C-250.42046703 200.65066129 -250.42046703 200.65066129 -253.6859436 198.84286499 C-256.3239971 196.28649696 -257.64513877 193.77297417 -258.0546875 190.16894531 C-257.65704385 186.03345136 -256.40095139 184.08071859 -253.7421875 180.91894531 C-249.99847678 179.0101442 -246.92934268 178.67403244 -242.75854492 178.69189453 C-240.98727486 178.69212112 -240.98727486 178.69212112 -239.18022156 178.69235229 C-237.28310173 178.70783615 -237.28310173 178.70783615 -235.34765625 178.72363281 C-233.39391838 178.72787766 -233.39391838 178.72787766 -231.40071106 178.73220825 C-227.94996366 178.73981835 -224.49938652 178.75944397 -221.04870605 178.78161621 C-217.52272893 178.80213143 -213.99672327 178.8113319 -210.47070312 178.82128906 C-203.56104789 178.84162953 -196.65185929 178.88078204 -189.7421875 178.91894531 C-189.7421875 167.36894531 -189.7421875 155.81894531 -189.7421875 143.91894531 C-193.35115967 143.94512939 -196.96013184 143.97131348 -200.6784668 143.99829102 C-212.5926724 144.08108092 -224.5068866 144.13660013 -236.42129803 144.17800617 C-243.64616754 144.20378234 -250.87076445 144.23892106 -258.09545898 144.29614258 C-264.39290465 144.34599624 -270.69015289 144.37824062 -276.98779041 144.38938779 C-280.32215061 144.39590352 -283.65581466 144.4138287 -286.99002647 144.4475956 C-290.71333906 144.48380878 -294.43547564 144.48889357 -298.15893555 144.48657227 C-299.81510391 144.51353683 -299.81510391 144.51353683 -301.50473022 144.54104614 C-308.99267414 144.49041809 -308.99267414 144.49041809 -312.90364075 141.50846863 C-315.88240562 137.31299137 -315.93261432 135.12546482 -315.3203125 130.11425781 C-314.7421875 127.91894531 -314.7421875 127.91894531 -312.3671875 125.41894531 C-308.72599324 123.33826288 -306.0606435 122.79427387 -301.93965149 122.7986908 C-300.45678146 122.7966288 -300.45678146 122.7966288 -298.94395447 122.79452515 C-297.86070389 122.79812042 -296.77745331 122.8017157 -295.66137695 122.80541992 C-294.51977112 122.8052739 -293.37816528 122.80512787 -292.20196533 122.80497742 C-288.41978063 122.80567538 -284.63764487 122.8134624 -280.85546875 122.82128906 C-278.2365878 122.82315365 -275.6177065 122.82457736 -272.99882507 122.82557678 C-266.80466383 122.82868578 -260.61052023 122.83689338 -254.41636676 122.84692627 C-247.36443865 122.85810077 -240.3125097 122.86360123 -233.26057494 122.86862171 C-218.75443669 122.87907634 -204.24831234 122.89666746 -189.7421875 122.91894531 C-189.7736084 121.86767456 -189.7736084 121.86767456 -189.80566406 120.79516602 C-189.88901798 117.60740612 -189.94090889 114.4198758 -189.9921875 111.23144531 C-190.02570313 110.12865234 -190.05921875 109.02585937 -190.09375 107.88964844 C-190.19283333 99.69050266 -190.19283333 99.69050266 -187.8977356 95.7610321 C-185.35038854 93.58412203 -182.83577835 92.04603452 -179.859375 90.50097656 C-178.70187744 89.8919751 -177.54437988 89.28297363 -176.35180664 88.65551758 C-175.10693591 88.01415566 -173.86206281 87.37279835 -172.6171875 86.73144531 C-171.33189694 86.05822706 -170.04731477 85.38365472 -168.76342773 84.70776367 C-166.84562135 83.69829843 -164.92748706 82.68954962 -163.00712585 81.68495178 C-158.23232297 79.18704194 -153.50342287 76.61907198 -148.8046875 73.98144531 C-147.40243736 73.19742369 -146.00008953 72.41357679 -144.59765625 71.62988281 C-143.84790527 71.21061523 -143.0981543 70.79134766 -142.32568359 70.359375 C-136.76506557 67.25904932 -131.1908262 64.18328055 -125.6171875 61.10644531 C-124.99658447 60.76372589 -124.37598145 60.42100647 -123.73657227 60.06790161 C-114.11332965 54.75539534 -104.45675736 49.50719431 -94.78222656 44.28857422 C-89.7725146 41.58041576 -84.7956055 38.83473994 -79.8671875 35.98144531 C-73.42254093 32.25404341 -66.86805631 28.74487031 -60.3046875 25.23144531 C-50.65328851 20.0631689 -41.07720468 14.78075961 -31.56665039 9.35766602 C-29.83070257 8.36792627 -28.09125766 7.38429167 -26.34814453 6.40722656 C-24.54278575 5.37617287 -22.75818044 4.30824255 -20.99169922 3.21191406 C-13.7965216 -1.09787495 -8.08786212 -3.18848411 0 0 Z M-13.265625 23.37597656 C-14.19560303 23.90682861 -15.12558105 24.43768066 -16.08374023 24.98461914 C-17.08477783 25.56107178 -18.08581543 26.13752441 -19.1171875 26.73144531 C-21.19865246 27.91993763 -23.2806957 29.10741769 -25.36328125 30.29394531 C-26.42144043 30.89722656 -27.47959961 31.50050781 -28.56982422 32.12207031 C-33.41667217 34.867399 -38.29495242 37.5542605 -43.1796875 40.23144531 C-44.04319824 40.70493408 -44.90670898 41.17842285 -45.79638672 41.66625977 C-47.77769041 42.75164663 -49.75955688 43.83598475 -51.7421875 44.91894531 C-49.20101861 47.81761084 -46.35028197 49.35492122 -42.95703125 51.14160156 C-41.79631104 51.75704834 -40.63559082 52.37249512 -39.43969727 53.0065918 C-38.82651642 53.32860565 -38.21333557 53.65061951 -37.58157349 53.98239136 C-34.36617138 55.67143067 -31.16045368 57.37870359 -27.953125 59.08300781 C-27.00262016 59.58709419 -27.00262016 59.58709419 -26.03291321 60.10136414 C-21.26046692 62.63458339 -16.51925076 65.21734278 -11.8046875 67.85644531 C-11.12607666 68.23575195 -10.44746582 68.61505859 -9.74829102 69.00585938 C-8.27401263 69.82994233 -6.79981421 70.65416835 -5.32568359 71.47851562 C0.23493343 74.57884075 5.80910316 77.65473975 11.3828125 80.73144531 C12.31571106 81.24652145 12.31571106 81.24652145 13.26745605 81.77200317 C22.80042642 87.03342081 32.36264089 92.23858428 41.94311523 97.41308594 C46.92509104 100.10627188 51.90105401 102.80824363 56.84741211 105.56640625 C58.23956943 106.33952097 59.63622324 107.10459678 61.03735352 107.86132812 C65.25888461 110.16030732 69.34825478 112.59538945 73.39601135 115.19041443 C86.66891864 124.70579602 86.66891864 124.70579602 101.65625 127.72363281 C105.11938379 126.31887125 107.88999034 124.0497417 110.78125 121.71972656 C115.75277231 118.10478684 121.31319833 115.40326224 126.72607422 112.51171875 C129.99475212 110.75365551 133.23546202 108.94594777 136.4765625 107.13769531 C137.58966797 106.51830078 138.70277344 105.89890625 139.84960938 105.26074219 C141.04166992 104.59655273 141.04166992 104.59655273 142.2578125 103.91894531 C139.41842648 101.57303219 136.71086143 99.46104669 133.421875 97.79785156 C132.33918335 97.24158081 132.33918335 97.24158081 131.23461914 96.67407227 C130.45852295 96.28050537 129.68242676 95.88693848 128.8828125 95.48144531 C121.60050022 91.72130637 114.43538696 87.79870445 107.3203125 83.73144531 C98.70736432 78.8171703 90.01274252 74.07421801 81.2578125 69.41894531 C71.7500288 64.36252647 62.33215948 59.17307312 52.98046875 53.83300781 C44.89232731 49.2336486 36.69904486 44.84044166 28.48272705 40.4760437 C18.95246087 35.41141149 9.53042886 30.18086273 0.1875 24.77832031 C-0.699375 24.26914063 -1.58625 23.75996094 -2.5 23.23535156 C-3.2748877 22.78619385 -4.04977539 22.33703613 -4.84814453 21.87426758 C-8.37817904 20.09377969 -10.03256318 21.51783342 -13.265625 23.37597656 Z M-82.4296875 61.41894531 C-83.03619141 61.7528125 -83.64269531 62.08667969 -84.26757812 62.43066406 C-85.76221981 63.25448232 -87.25262421 64.08597982 -88.7421875 64.91894531 C-88.7421875 65.57894531 -88.7421875 66.23894531 -88.7421875 66.91894531 C-87.08509766 67.77552734 -87.08509766 67.77552734 -85.39453125 68.64941406 C-76.43599244 73.30816724 -67.574572 78.10109707 -58.8046875 83.10644531 C-50.19137089 88.02009211 -41.4971344 92.76366364 -32.7421875 97.41894531 C-23.2344038 102.47536415 -13.81653448 107.6648175 -4.46484375 113.00488281 C3.6241648 117.60473511 11.81956736 121.99561477 20.03491211 126.36386108 C31.18115044 132.29429562 42.18655209 138.45245997 53.13671875 144.73657227 C56.92291978 147.12934857 56.92291978 147.12934857 61.15234375 147.72753906 C63.8793317 146.68025426 66.38142333 145.38148626 68.9453125 143.98144531 C69.91855469 143.45679688 70.89179688 142.93214844 71.89453125 142.39160156 C74.36655748 141.13694826 74.36655748 141.13694826 75.2578125 138.91894531 C74.46947021 138.50233643 73.68112793 138.08572754 72.86889648 137.65649414 C58.77623609 130.19964351 44.72777898 122.69881977 30.88452148 114.78540039 C23.41216172 110.53051545 15.84916848 106.45614893 8.2578125 102.41894531 C-0.30733127 97.86364435 -8.81722004 93.22982479 -17.2421875 88.41894531 C-26.99299645 82.85099465 -36.86325905 77.5261076 -46.77709961 72.2565918 C-53.9960713 68.41344549 -61.16882021 64.50926328 -68.21459961 60.35546875 C-74.10955177 56.94291017 -76.80850986 58.26426491 -82.4296875 61.41894531 Z M-119.8671875 82.10644531 C-120.69871338 82.54480713 -121.53023926 82.98316895 -122.38696289 83.43481445 C-129.37312952 87.14398138 -136.28854251 90.97394816 -143.1796875 94.85644531 C-144.16791504 95.41162842 -145.15614258 95.96681152 -146.17431641 96.53881836 C-147.567229 97.32832886 -147.567229 97.32832886 -148.98828125 98.13378906 C-149.80997803 98.59906006 -150.6316748 99.06433105 -151.47827148 99.54370117 C-153.68104972 100.8818064 -155.7098037 102.33645407 -157.7421875 103.91894531 C-156.98824707 104.32097168 -156.23430664 104.72299805 -155.45751953 105.13720703 C-141.68961549 112.48330289 -127.94627348 119.86175765 -114.32568359 127.47851562 C-108.76506657 130.57884075 -103.19089684 133.65473975 -97.6171875 136.73144531 C-96.68428894 137.24652145 -96.68428894 137.24652145 -95.73254395 137.77200317 C-86.19957358 143.03342081 -76.63735911 148.23858428 -67.05688477 153.41308594 C-61.37104788 156.48676927 -55.70078545 159.58536743 -50.0546875 162.73144531 C-49.37229004 163.11155762 -48.68989258 163.49166992 -47.98681641 163.88330078 C-46.48240529 164.72148717 -44.97801193 165.55970541 -43.47363281 166.39794922 C-38.12174558 169.37812954 -32.76759045 172.3541476 -27.40878296 175.3218689 C-26.09943839 176.0476808 -24.79069187 176.77457272 -23.48257446 177.50259399 C-21.63703461 178.52955596 -19.78945849 179.55276308 -17.94140625 180.57519531 C-16.86721436 181.17138672 -15.79302246 181.76757812 -14.6862793 182.38183594 C-10.8207909 184.41163043 -10.8207909 184.41163043 -6.7421875 185.91894531 C-3.96373677 184.74824978 -1.66721153 183.54175247 0.8828125 181.98144531 C2.4653796 181.05695531 4.04877056 180.13387475 5.6328125 179.21191406 C6.51066406 178.69419434 7.38851562 178.17647461 8.29296875 177.64306641 C13.49199793 174.61971792 18.764575 171.72760902 24.02850342 168.81930542 C27.01640775 167.16711166 30.0001891 165.50753301 32.984375 163.84863281 C34.7421875 162.87207031 36.5 161.89550781 38.2578125 160.91894531 C35.71664361 158.02027979 32.86590697 156.4829694 29.47265625 154.69628906 C28.31193604 154.08084229 27.15121582 153.46539551 25.95532227 152.83129883 C25.03555099 152.34827805 25.03555099 152.34827805 24.09719849 151.85549927 C20.88179638 150.16645996 17.67607868 148.45918703 14.46875 146.75488281 C13.83508011 146.41882523 13.20141022 146.08276764 12.54853821 145.73652649 C7.77609192 143.20330724 3.03487576 140.62054784 -1.6796875 137.98144531 C-2.35829834 137.60213867 -3.03690918 137.22283203 -3.73608398 136.83203125 C-5.21036237 136.00794829 -6.68456079 135.18372227 -8.15869141 134.359375 C-13.71930843 131.25904988 -19.29347816 128.18315088 -24.8671875 125.10644531 C-25.48911987 124.76306122 -26.11105225 124.41967712 -26.75183105 124.06588745 C-36.28480142 118.80446982 -45.84701589 113.59930634 -55.42749023 108.42480469 C-62.53246627 104.58395472 -69.60138892 100.68288157 -76.65625 96.75097656 C-82.86337552 93.29205392 -89.07738814 89.84561442 -95.2953186 86.40615845 C-96.63184015 85.66637551 -97.96792257 84.92579866 -99.30355835 84.18441772 C-101.17915087 83.14343035 -103.05619036 82.10509984 -104.93359375 81.06738281 C-106.02873291 80.46071777 -107.12387207 79.85405273 -108.25219727 79.22900391 C-112.76431982 76.85504081 -115.68165609 79.89823827 -119.8671875 82.10644531 Z M-169.7421875 120.91894531 C-169.7421875 175.36894531 -169.7421875 229.81894531 -169.7421875 285.91894531 C-151.33321834 296.35084601 -151.33321834 296.35084601 -132.7421875 306.41894531 C-123.23080497 311.46842702 -113.81633271 316.66493272 -104.46484375 322.00488281 C-96.9591538 326.27302828 -89.36478874 330.36477972 -81.7421875 334.41894531 C-73.13627322 338.99632015 -64.5847162 343.6516261 -56.1171875 348.48144531 C-47.59282959 353.3426496 -39.00487514 358.0755471 -30.3671875 362.73144531 C-29.22427246 363.34898682 -28.08135742 363.96652832 -26.90380859 364.6027832 C-25.85273926 365.16731201 -24.80166992 365.73184082 -23.71875 366.31347656 C-22.78111816 366.8172583 -21.84348633 367.32104004 -20.87744141 367.84008789 C-18.99215223 368.99410617 -18.99215223 368.99410617 -17.7421875 368.91894531 C-17.7421875 314.46894531 -17.7421875 260.01894531 -17.7421875 203.91894531 C-26.3221875 199.29894531 -34.9021875 194.67894531 -43.7421875 189.91894531 C-48.87531404 187.0793434 -54.0044585 184.2347609 -59.12646484 181.37548828 C-64.69924141 178.27233493 -70.28310258 175.18918819 -75.8671875 172.10644531 C-76.79981415 171.59150513 -76.79981415 171.59150513 -77.75128174 171.06616211 C-87.28443769 165.80465808 -96.84683629 160.59940335 -106.42749023 155.42480469 C-113.54170642 151.57895963 -120.61978945 147.67278746 -127.68359375 143.73535156 C-133.75255572 140.35329493 -139.83020215 136.98696831 -145.91079712 133.62588501 C-147.19936843 132.91326831 -148.48760555 132.20004693 -149.77548218 131.48617554 C-151.59946492 130.47522927 -153.42460381 129.46639918 -155.25 128.45800781 C-156.30848145 127.87229004 -157.36696289 127.28657227 -158.45751953 126.68310547 C-162.1786394 124.68453165 -165.96424834 122.80791489 -169.7421875 120.91894531 Z M71.2578125 165.91894531 C71.2578125 177.46894531 71.2578125 189.01894531 71.2578125 200.91894531 C76.79417782 198.70439918 82.02305469 195.77426775 87.2578125 192.91894531 C87.2578125 181.36894531 87.2578125 169.81894531 87.2578125 157.91894531 C81.29496456 157.91894531 76.51914892 163.11289922 71.2578125 165.91894531 Z " fill="#000000" transform="translate(337.7421875,58.0810546875)"/>
<path d="M0 0 C0.7425 -0.020625 1.485 -0.04125 2.25 -0.0625 C7.12098192 -0.0969239 10.39650328 0.57835889 14.625 3.25 C16.8229747 5.96083547 17.54897877 7.73957172 18.0625 11.1875 C17.50893677 15.0624426 16.03326469 17.20425348 13.625 20.25 C9.65894419 22.23302791 4.73623757 21.56628077 0.375 21.625 C-1.18154297 21.68107422 -1.18154297 21.68107422 -2.76953125 21.73828125 C-11.37914154 21.83724229 -11.37914154 21.83724229 -15.06640625 19.0390625 C-18.17276427 15.28620357 -18.18886667 13.31809848 -17.90234375 8.62890625 C-17.09036557 4.96598245 -15.38642437 3.37168535 -12.375 1.25 C-8.31334506 -0.03154522 -4.222545 0.02902093 0 0 Z " fill="#000000" transform="translate(17.375,308.75)"/>
<path d="M0 0 C2.96042112 2.58249502 4.59480753 4.1801882 5.4453125 8 C5.65509607 11.69219084 5.10795755 13.83086651 3.125 16.9375 C-0.36158203 20.3215355 -3.03592714 20.38966392 -7.73828125 20.359375 C-11.32520929 19.78943134 -12.86838894 17.79773951 -15 15 C-16.43304064 12.13391871 -16.30644155 10.18699217 -16 7 C-14.26177772 3.65231265 -12.90483578 1.56246548 -9.6875 -0.4375 C-6.01974492 -1.20516967 -3.61582995 -1.03309427 0 0 Z " fill="#000000" transform="translate(56,238)"/>
<path d="M0 0 C2.79659888 2.18271132 3.76939596 3.66006916 4.37109375 7.15625 C4.5972908 11.26892363 4.34475039 13.44839938 2.125 17 C-1.14840013 20.08084718 -3.46126475 20.33387487 -7.9609375 20.29296875 C-11.13134567 19.83745033 -12.8192402 18.24684343 -15 16 C-16.73007568 12.53984865 -16.4835273 8.78327445 -16 5 C-12.01229156 -1.60034501 -6.98748958 -1.79101718 0 0 Z " fill="#000000" transform="translate(508,256)"/>
</svg>
