<?xml version="1.0" encoding="UTF-8"?>
<svg version="1.1" xmlns="http://www.w3.org/2000/svg" width="512" height="512">
<path d="M0 0 C1.61408609 -0.00576172 1.61408609 -0.00576172 3.26077998 -0.01163983 C5.0252968 -0.01034011 5.0252968 -0.01034011 6.82546043 -0.00901413 C8.07970546 -0.01198525 9.33395049 -0.01495637 10.62620294 -0.01801753 C14.10535829 -0.02607461 17.58449299 -0.02787638 21.06365657 -0.028615 C24.81705766 -0.03046783 28.57044809 -0.03801637 32.323843 -0.04475021 C40.53063387 -0.05832536 48.73741984 -0.06435711 56.94422007 -0.06876087 C62.07063367 -0.07152495 67.19704539 -0.07576263 72.32345772 -0.08026505 C86.5225373 -0.09245715 100.72161537 -0.10275625 114.92070007 -0.10614014 C115.82928155 -0.1063597 116.73786303 -0.10657927 117.67397728 -0.10680549 C118.58471071 -0.10702377 119.49544413 -0.10724204 120.43377554 -0.10746694 C122.27921144 -0.1079104 124.12464734 -0.10835696 125.97008324 -0.10880661 C127.34317788 -0.10913875 127.34317788 -0.10913875 128.7440118 -0.10947761 C143.57049713 -0.11342404 158.39693326 -0.13087361 173.22339959 -0.15416613 C188.45279008 -0.1778981 203.68215591 -0.19034284 218.91156518 -0.19150805 C227.45933358 -0.19242383 236.00703788 -0.19815152 244.55478859 -0.21632767 C251.83477717 -0.23175364 259.11468185 -0.23683445 266.39468367 -0.22858956 C270.10643279 -0.22469174 273.81801311 -0.22556993 277.52974129 -0.23964691 C281.56105248 -0.25479553 285.59198587 -0.24649361 289.623312 -0.23606491 C290.78627222 -0.24412132 291.94923244 -0.25217772 293.14743388 -0.26047826 C305.27097157 -0.18729704 315.2846091 2.38531136 324.35533714 10.63142776 C325.09783714 11.45642776 325.84033714 12.28142776 326.60533714 13.13142776 C327.28596214 13.87392776 327.96658714 14.61642776 328.66783714 15.38142776 C332.95731482 21.46971866 335.71221233 28.23511514 335.75250816 35.71445084 C335.76324112 37.0871891 335.76324112 37.0871891 335.7741909 38.48765945 C335.77687981 39.48457809 335.77956871 40.48149673 335.7823391 41.50862503 C335.78891029 42.56443268 335.79548149 43.62024033 335.80225182 44.70804214 C335.82197222 48.20464018 335.83364627 51.70119523 335.84361839 55.19783401 C335.84769392 56.39401793 335.85176945 57.59020184 335.85596848 58.82263374 C335.87682641 65.15709002 335.89112791 71.49152466 335.90050316 77.82600784 C335.91155138 84.35368432 335.94593426 90.88101841 335.98567486 97.4085741 C336.01188377 102.44022611 336.02019895 107.47179717 336.02378464 112.50351143 C336.02864151 114.9087333 336.04022966 117.31395177 336.05882263 119.71910667 C336.08329837 123.09583235 336.08223294 126.47168065 336.07530785 129.84846878 C336.09452293 131.32259232 336.09452293 131.32259232 336.11412621 132.82649612 C336.03432676 143.57048696 332.51140535 152.8479697 325.16783714 160.75642776 C324.32221214 161.54017776 323.47658714 162.32392776 322.60533714 163.13142776 C321.88346214 163.81205276 321.16158714 164.49267776 320.41783714 165.19392776 C312.91368427 170.3634553 304.77489481 172.26873859 295.77330589 172.22908401 C294.48102074 172.22586136 293.18873558 172.2226387 291.85729027 172.21931839 C290.50247188 172.21096441 289.14765417 172.20249949 287.79283714 172.19392776 C286.4184898 172.18890776 285.0441407 172.18434573 283.66979027 172.18025589 C280.31492791 172.16848444 276.96015493 172.1520406 273.60533714 172.13142776 C273.33527855 172.70707474 273.06521996 173.28272171 272.78697777 173.87581253 C271.58613575 176.16808101 270.23778399 178.14233723 268.69908714 180.22127151 C268.1248098 180.99970413 267.55053246 181.77813675 266.95885277 182.58015823 C266.34719261 183.40145218 265.73553246 184.22274612 265.10533714 185.06892776 C264.47820824 185.91342484 263.85107933 186.75792191 263.20494652 187.6280098 C261.93666296 189.33254922 260.66649849 191.03569084 259.39439964 192.7373848 C258.28212428 194.22578166 257.17229189 195.71601139 256.06627464 197.20906448 C254.75350661 198.98065961 253.43145659 200.7448153 252.10533714 202.50642776 C251.00705589 203.97209183 251.00705589 203.97209183 249.88658714 205.46736526 C246.42635539 209.50825235 242.54578484 213.81908886 237.03111839 214.40486526 C236.00373558 214.43838089 234.97635277 214.47189651 233.91783714 214.50642776 C232.90334496 214.55541214 231.88885277 214.60439651 230.84361839 214.65486526 C224.66777044 213.65659792 221.03198692 209.92736628 217.31627464 205.08455276 C216.19315296 203.52480767 215.08133845 201.95686523 213.98033714 200.38142776 C212.30135217 198.02099657 210.61594742 195.67098505 208.8848629 193.34836197 C207.15575918 190.90819963 205.6145069 188.50013941 204.08203697 185.94244766 C198.31305856 176.64182298 198.31305856 176.64182298 189.06175804 171.5103035 C183.76597596 170.66773898 178.48737126 170.73601511 173.14049339 170.83845901 C171.17474999 170.82443007 169.20903608 170.80551286 167.24338341 170.78198624 C163.14044298 170.75255908 159.04382199 170.78438419 154.94151878 170.86018753 C149.71682664 170.95147742 144.50794146 170.88373844 139.28411102 170.77457809 C117.43586346 169.35928151 117.43586346 169.35928151 97.93492699 176.92830276 C94.69141731 180.56782617 92.49694572 184.48172213 90.579916 188.94658279 C89.25040219 191.92713337 87.39414478 194.34558651 85.38658714 196.90486526 C83.72118301 199.23029131 82.06642469 201.56199113 80.42564964 203.90486526 C76.66463913 209.13143387 73.29022485 213.47889557 66.60533714 214.66267776 C60.43314063 214.59838405 56.31912206 214.51634396 51.60533714 210.13142776 C46.49341312 204.6404843 41.99700332 198.76677866 37.60533714 192.69392776 C36.43990856 191.09016276 35.27324383 189.4872953 34.10533714 187.88533401 C33.53686058 187.10432327 32.96838402 186.32331253 32.38268089 185.5186348 C29.96351428 182.26937503 27.43641791 179.10989021 24.89049339 175.95930862 C23.60533714 174.13142776 23.60533714 174.13142776 23.60533714 172.13142776 C22.37400047 172.15499344 22.37400047 172.15499344 21.11778831 172.17903519 C18.01836627 172.23072494 14.91916676 172.26804684 11.81944847 172.29622269 C9.83972479 172.31840246 7.86020051 172.35655773 5.88072777 172.39509964 C-7.03623411 172.49320315 -17.43426008 170.45906665 -27.14466286 161.63142776 C-27.88716286 160.80642776 -28.62966286 159.98142776 -29.39466286 159.13142776 C-30.07528786 158.38892776 -30.75591286 157.64642776 -31.45716286 156.88142776 C-35.74664053 150.79313687 -38.50153804 144.02774039 -38.54183388 136.54840469 C-38.54898918 135.63324585 -38.55614449 134.71808701 -38.56351662 133.77519608 C-38.56754997 132.27981812 -38.56754997 132.27981812 -38.57166481 130.7542305 C-38.58152161 129.17051903 -38.58152161 129.17051903 -38.59157753 127.55481339 C-38.61129793 124.05821535 -38.62297199 120.5616603 -38.63294411 117.06502151 C-38.63701963 115.8688376 -38.64109516 114.67265369 -38.64529419 113.44022179 C-38.66615213 107.10576551 -38.68045362 100.77133087 -38.68982887 94.43684769 C-38.7008771 87.90917121 -38.73525998 81.38183712 -38.77500057 74.85428143 C-38.80120949 69.82262942 -38.80952466 64.79105836 -38.81311035 59.7593441 C-38.81796723 57.35412223 -38.82955537 54.94890376 -38.84814835 52.54374886 C-38.87262408 49.16702318 -38.87155866 45.79117488 -38.86463356 42.41438675 C-38.87744362 41.43163773 -38.89025368 40.4488887 -38.90345192 39.43635941 C-38.82365248 28.69236857 -35.30073106 19.41488583 -27.95716286 11.50642776 C-27.11153786 10.72267776 -26.26591286 9.93892776 -25.39466286 9.13142776 C-24.67278786 8.45080276 -23.95091286 7.77017776 -23.20716286 7.06892776 C-16.26864767 2.28906175 -8.38008344 0.011259 0 0 Z " fill="#000000" transform="translate(107.39466285705566,25.868572235107422)"/>
<path d="M0 0 C0.97646484 -0.0049649 1.95292969 -0.00992981 2.95898438 -0.01504517 C6.18018304 -0.02961443 9.40133243 -0.03646089 12.62255859 -0.04199219 C14.87210083 -0.04774895 17.12164307 -0.05350661 19.3711853 -0.05926514 C24.08697741 -0.06976095 28.80275255 -0.07561257 33.51855469 -0.07910156 C39.53708489 -0.08457627 45.55538773 -0.10858863 51.57384682 -0.13707352 C56.2220829 -0.15577532 60.8702651 -0.16090956 65.51853561 -0.16243744 C67.7359173 -0.16544863 69.95329839 -0.17342483 72.17064285 -0.18662262 C94.51130869 -0.31008024 94.51130869 -0.31008024 104.14599609 3.16113281 C104.80798004 3.3984613 105.46996399 3.63578979 106.15200806 3.88031006 C120.7021235 9.66594427 131.23740396 20.19412366 138.14599609 34.16113281 C142.54929408 44.82918128 143.37570817 55.06398894 143.44116211 66.49438477 C143.4527042 67.89552898 143.47319159 69.29662846 143.50268555 70.69750977 C143.84142726 86.84167465 143.84142726 86.84167465 139.14599609 92.16113281 C130.97752746 98.36496925 121.74135329 97.87281817 112.01318359 97.80810547 C110.29395627 97.81489088 108.57473622 97.82379918 106.85552979 97.83465576 C102.21078738 97.85734601 97.56660361 97.84865549 92.92185211 97.83276033 C88.04717063 97.82004786 83.17253504 97.83185625 78.29785156 97.83969116 C70.11368273 97.8487722 61.92973994 97.83684046 53.74560547 97.81298828 C44.30122447 97.78577999 34.85738329 97.79459525 25.41301537 97.82212031 C17.28528938 97.84485451 9.15772533 97.84799042 1.0299778 97.83492696 C-3.81606257 97.82715612 -8.66184972 97.82602546 -13.50787354 97.84260941 C-18.06524001 97.85711782 -22.62191464 97.84691688 -27.17920685 97.81813812 C-28.84561264 97.81156119 -30.51207727 97.81336652 -32.17845917 97.82445145 C-41.14773591 97.87858745 -49.3749574 97.85458031 -56.85400391 92.16113281 C-62.05268666 86.20941346 -61.4367477 78.60832942 -61.32055664 71.08203125 C-61.29185232 69.06066843 -61.29992265 67.0419832 -61.31298828 65.02050781 C-61.1913225 45.89090381 -56.43806106 29.42941958 -42.73681641 15.78613281 C-30.56036503 4.69863237 -16.2070784 0.01983599 0 0 Z " fill="#000000" transform="translate(214.85400390625,388.8388671875)"/>
<path d="M0 0 C10.40903161 7.50618286 18.23644567 18.75285358 22 31 C22.22300781 31.66644531 22.44601562 32.33289063 22.67578125 33.01953125 C27.05558566 48.60210067 23.75270457 65.62355507 16.1328125 79.5390625 C8.18691838 93.01319006 -4.43686898 101.89969877 -19.3671875 106.32421875 C-35.20789043 110.39015585 -51.2776015 107.79501873 -65.60546875 100.140625 C-79.69314596 91.65339335 -88.17452121 78.53325612 -93 63 C-96.4708416 46.6406192 -93.85781464 29.86772167 -84.91015625 15.71484375 C-65.35358632 -12.08028121 -28.35686817 -18.6010649 0 0 Z " fill="#000000" transform="translate(291,274)"/>
<path d="M0 0 C1.88270759 -0.00456991 3.76541351 -0.00987787 5.64811707 -0.0158844 C9.58261923 -0.0247861 13.51691811 -0.02242692 17.45141602 -0.01245117 C22.46099707 -0.00097924 27.46987133 -0.02116093 32.47935963 -0.05036831 C36.36504988 -0.06883296 40.25057405 -0.06841729 44.13629723 -0.06273079 C45.98163531 -0.06257875 47.8269855 -0.06852435 49.67228127 -0.08102226 C62.92393467 -0.15812984 73.6850201 1.25415526 85.66796875 7.43359375 C85.66796875 8.09359375 85.66796875 8.75359375 85.66796875 9.43359375 C83.95462552 10.47557376 82.19393415 11.43985035 80.41796875 12.37109375 C62.68493808 22.45048147 49.36947147 39.55010551 43.78250122 59.19136047 C41.64719697 67.38098238 41.32095294 75.5755015 41.0703125 84.00390625 C41.02966675 85.20281494 40.989021 86.40172363 40.94714355 87.63696289 C40.84853117 90.56903769 40.75560644 93.50117389 40.66796875 96.43359375 C28.25478364 96.50312171 15.8416449 96.55641937 3.42830467 96.58903027 C-2.33579006 96.60468231 -8.09975151 96.62591243 -13.86376953 96.65991211 C-19.42695805 96.69252161 -24.99001841 96.71045024 -30.55329514 96.71822548 C-32.67516472 96.7237661 -34.79702733 96.73458554 -36.91884232 96.75078392 C-39.89217507 96.77257904 -42.86497905 96.77555976 -45.83837891 96.77416992 C-47.15252777 96.79034866 -47.15252777 96.79034866 -48.4932251 96.80685425 C-54.22616588 96.77788071 -58.53358553 95.92627105 -62.9765625 91.96875 C-70.97819374 81.87973669 -68.34962038 62.07008012 -67.03173828 49.58984375 C-64.80462717 35.79026613 -58.07184282 25.19061347 -48.33203125 15.43359375 C-47.76742187 14.85738281 -47.2028125 14.28117187 -46.62109375 13.6875 C-41.64503243 9.01485705 -35.59516391 6.03654877 -29.33203125 3.43359375 C-28.7263028 3.17712067 -28.12057434 2.92064758 -27.49649048 2.65640259 C-18.59149075 -0.56228562 -9.33460689 -0.01991715 0 0 Z " fill="#000000" transform="translate(93.33203125,367.56640625)"/>
<path d="M0 0 C1.88127835 -0.00457098 3.76255503 -0.00987925 5.64382935 -0.0158844 C9.5723553 -0.02477942 13.50067757 -0.02243406 17.42919922 -0.01245117 C22.43090462 -0.00097145 27.43190293 -0.02117635 32.43351555 -0.05036831 C36.31491464 -0.06883116 40.19614745 -0.06841779 44.0775795 -0.06273079 C45.92012651 -0.06257878 47.76268566 -0.06852227 49.60519028 -0.08102226 C67.68515535 -0.18641863 83.73461783 3.2349747 97.37109375 16.0390625 C104.09113156 23.35590651 109.79439404 31.82575161 112.5703125 41.43359375 C113.10205078 43.26277344 113.10205078 43.26277344 113.64453125 45.12890625 C115.09825102 51.88364829 114.94234249 58.80403191 114.94091797 65.68164062 C114.94531623 68.06061126 114.98179829 70.43775936 115.01953125 72.81640625 C115.0253967 74.34765 115.02936791 75.87890242 115.03125 77.41015625 C115.04562103 78.11137604 115.05999207 78.81259583 115.07479858 79.5350647 C115.02670508 84.78071992 113.94302722 88.48584162 110.5703125 92.43359375 C105.22918631 96.16197574 100.23858962 97.00745261 93.859375 96.88769531 C92.61404243 96.88857147 92.61404243 96.88857147 91.34355164 96.88946533 C88.6270314 96.88670111 85.91163861 96.85568931 83.1953125 96.82421875 C81.30103149 96.81675042 79.4067427 96.81106028 77.51245117 96.80706787 C72.54748888 96.79185817 67.58300104 96.75261689 62.6182251 96.70825195 C57.54372575 96.66719827 52.4691491 96.64903535 47.39453125 96.62890625 C37.45291753 96.58611785 27.5116546 96.51792344 17.5703125 96.43359375 C17.54820206 95.69376251 17.52609161 94.95393127 17.50331116 94.19168091 C17.39808589 90.79551687 17.28309558 87.39974848 17.16796875 84.00390625 C17.13336548 82.84028564 17.09876221 81.67666504 17.06311035 80.4777832 C16.35608043 60.30433641 10.40644621 42.51075472 -3.4296875 27.43359375 C-4.44289063 26.28310547 -4.44289063 26.28310547 -5.4765625 25.109375 C-13.28149305 16.72049892 -23.14372221 11.274048 -33.4296875 6.43359375 C-25.91842961 -2.15962261 -10.35915975 -0.02216843 0 0 Z " fill="#000000" transform="translate(360.4296875,367.56640625)"/>
<path d="M0 0 C10.85981564 8.04706751 16.85913719 18.57499985 19.96484375 31.5625 C21.36874143 45.60147681 18.89928839 58.80928793 10.33984375 70.28515625 C1.76330266 80.43916829 -9.3546467 87.35069904 -22.72265625 88.6875 C-37.03719244 89.64648037 -50.03788146 85.80550109 -60.97265625 76.4375 C-70.12206399 67.76133749 -76.10354175 56.86257389 -76.9609375 44.15625 C-77.20668737 31.01509906 -74.95176018 20.29246071 -66.72265625 9.6875 C-65.98015625 8.65625 -65.23765625 7.625 -64.47265625 6.5625 C-57.71451521 -0.50282926 -50.02915958 -4.54730892 -40.72265625 -7.3125 C-40.11035156 -7.50457031 -39.49804688 -7.69664062 -38.8671875 -7.89453125 C-25.30122441 -10.53853499 -11.51393943 -7.4644664 0 0 Z " fill="#000000" transform="translate(145.72265625,269.3125)"/>
<path d="M0 0 C9.38045363 7.42440774 16.04144129 17.20574436 18.56640625 29.03125 C19.87854258 44.5959016 18.13722002 57.33151635 8.56640625 70.03125 C7.98890625 70.8975 7.41140625 71.76375 6.81640625 72.65625 C-2.68541798 82.68595336 -15.60041414 87.93509032 -29.24609375 88.34375 C-42.09950527 88.06645559 -54.28168596 83.55782696 -63.8125 74.78125 C-75.74470389 61.90022026 -78.24370941 48.30337117 -77.61279297 31.40673828 C-77.23932032 26.455936 -75.73718393 22.38168346 -73.43359375 18.03125 C-72.76263672 16.72800781 -72.76263672 16.72800781 -72.078125 15.3984375 C-65.62217063 3.80195111 -55.899386 -3.82723833 -43.18359375 -7.90625 C-27.9527183 -11.41769103 -12.92930658 -8.88301704 0 0 Z " fill="#000000" transform="translate(413.43359375,269.96875)"/>
</svg>
