<?xml version="1.0" encoding="UTF-8"?>
<svg version="1.1" xmlns="http://www.w3.org/2000/svg" width="512" height="512">
<path d="M0 0 C0.87269531 0.75023437 1.74539063 1.50046875 2.64453125 2.2734375 C7.88001004 6.87312351 12.53464941 11.66179281 17 17 C17.83273437 17.94488281 18.66546875 18.88976562 19.5234375 19.86328125 C38.30398543 41.2776458 62 76.46646097 62 106 C62.76828125 106.20238281 63.5365625 106.40476563 64.328125 106.61328125 C69.48959164 108.56255854 74.02092552 111.36607698 78.75 114.1875 C80.91367549 115.46419778 83.07775166 116.74021671 85.2421875 118.015625 C86.35819336 118.67498047 87.47419922 119.33433594 88.62402344 120.01367188 C94.02126394 123.18925393 99.44767158 126.3137097 104.875 129.4375 C107.04818149 130.69009653 109.22135854 131.94270075 111.39453125 133.1953125 C114.73077109 135.11718508 118.06721467 137.03870315 121.40380859 138.95996094 C127.96396039 142.73778426 134.52198168 146.51923403 141.07519531 150.30908203 C142.96186039 151.39982012 144.8491822 152.48942342 146.73730469 153.57763672 C149.14015616 154.96368626 151.53941362 156.35572714 153.9375 157.75 C154.62336182 158.14421143 155.30922363 158.53842285 156.01586914 158.94458008 C161.98873117 162.4346114 161.98873117 162.4346114 164 165 C164.38311005 167.32575893 164.38311005 167.32575893 164.39440918 170.11729431 C164.40575897 171.17582108 164.41710876 172.23434784 164.42880249 173.32495117 C164.42587189 174.48607422 164.42294128 175.64719727 164.41992188 176.84350586 C164.42839142 178.06646866 164.43686096 179.28943146 164.44558716 180.54945374 C164.4649985 183.90498854 164.47073279 187.25996766 164.46883965 190.61552119 C164.46872005 193.41628186 164.47727979 196.21699033 164.48561716 199.01773649 C164.50485939 205.62505953 164.50773211 212.23225623 164.50097656 218.83959961 C164.49433472 225.65681432 164.51720331 232.4734881 164.55429029 239.29059309 C164.58497386 245.14292871 164.59634883 250.99509021 164.59245348 256.84750468 C164.59038453 260.34319854 164.59588659 263.83847154 164.62034607 267.33408928 C164.6467188 271.23197558 164.63289543 275.12915183 164.61523438 279.02709961 C164.62849762 280.18619843 164.64176086 281.34529724 164.65542603 282.53952026 C164.57280916 290.36240183 164.57280916 290.36240183 161.6204071 293.64874268 C160.75567276 294.09465759 159.89093842 294.54057251 159 295 C158.16122314 295.5256958 157.32244629 296.0513916 156.45825195 296.59301758 C155.56066162 297.10501709 154.66307129 297.6170166 153.73828125 298.14453125 C152.71541016 298.73105469 151.69253906 299.31757813 150.63867188 299.921875 C149.54103516 300.54578125 148.44339844 301.1696875 147.3125 301.8125 C146.15013283 302.47741412 144.98802819 303.14278737 143.82617188 303.80859375 C141.4145854 305.1900913 139.00188656 306.56961565 136.58837891 307.94775391 C131.04829026 311.11338566 125.52508068 314.30827402 120 317.5 C117.83991421 318.74621589 115.67975768 319.99230917 113.51953125 321.23828125 C109.12040925 323.77615993 104.72205679 326.31536583 100.32421875 328.85546875 C89.89275017 334.87938214 79.45691751 340.89534414 69 346.875 C68.11530029 347.38119873 67.23060059 347.88739746 66.3190918 348.40893555 C65.5125415 348.86953369 64.70599121 349.33013184 63.875 349.8046875 C63.17117188 350.20671387 62.46734375 350.60874023 61.7421875 351.02294922 C57.94112254 353.15465633 55.41438516 353.29279526 51 353 C48.04760742 351.76928711 48.04760742 351.76928711 45.10546875 350.02734375 C43.99751953 349.3820874 42.88957031 348.73683105 41.74804688 348.07202148 C40.56106555 347.36073517 39.37421984 346.64922249 38.1875 345.9375 C36.95074983 345.21082112 35.7131046 344.48566361 34.47460938 343.76196289 C31.9168272 342.26503055 29.36375629 340.76050083 26.81396484 339.25 C20.90801319 335.75702087 14.95003784 332.35464251 9 328.9375 C6.95779473 327.76004826 4.91610717 326.58169802 2.875 325.40234375 C1.91207031 324.85046387 0.94914062 324.29858398 -0.04296875 323.72998047 C-2.12697552 322.51075392 -4.1905492 321.25626578 -6.23828125 319.97705078 C-7.82189453 319.00034424 -7.82189453 319.00034424 -9.4375 318.00390625 C-10.38496094 317.40521729 -11.33242188 316.80652832 -12.30859375 316.18969727 C-15.47053777 314.79200557 -16.77027641 314.89634537 -20 316 C-22.17574694 317.29975993 -24.23280408 318.62606715 -26.3125 320.0625 C-66.2657462 346.55864619 -118.88133236 356.69376535 -166.0390625 348.03515625 C-167.69436447 347.69813864 -169.34795802 347.35265108 -171 347 C-172.4226416 346.70198486 -172.4226416 346.70198486 -173.87402344 346.39794922 C-212.03273101 338.17355874 -244.88109173 319.82473258 -273 293 C-273.85207031 292.20078125 -274.70414063 291.4015625 -275.58203125 290.578125 C-302.17441441 264.94893052 -319.42320168 230.59693739 -328 195 C-328.21172852 194.14148438 -328.42345703 193.28296875 -328.64160156 192.3984375 C-335.05020166 165.17966054 -334.68616014 133.1110055 -328 106 C-327.78569336 105.11054688 -327.57138672 104.22109375 -327.35058594 103.3046875 C-317.61535075 63.9669686 -296.45480873 26.09837391 -265 0 C-264.1646875 -0.73476562 -263.329375 -1.46953125 -262.46875 -2.2265625 C-232.41730503 -28.23262064 -193.67895064 -45.38016591 -154 -49 C-153.3620752 -49.06026367 -152.72415039 -49.12052734 -152.06689453 -49.18261719 C-96.37648928 -54.16509605 -42.24828062 -36.47810729 0 0 Z M-217 -12 C-217.33 -11.34 -217.66 -10.68 -218 -10 C-216.52660642 -9.48323565 -215.04578254 -8.98765453 -213.5625 -8.5 C-212.73878906 -8.2215625 -211.91507812 -7.943125 -211.06640625 -7.65625 C-201.14058152 -5.53199706 -191.40399362 -8.26251215 -181.65625 -10.22265625 C-168.25487326 -12.78296294 -156.16680136 -13.87792833 -144.4375 -6.125 C-143.77621094 -5.65320313 -143.11492187 -5.18140625 -142.43359375 -4.6953125 C-141.63050781 -4.13585937 -140.82742187 -3.57640625 -140 -3 C-139.4433667 -2.5968457 -138.8867334 -2.19369141 -138.31323242 -1.77832031 C-132.13369544 2.43880142 -125.94191061 3.63561417 -118.68945312 5.02734375 C-112.63014595 6.30159979 -108.73507772 7.957404 -104 12 C-97.60806332 22.22709868 -100.11994484 35.35071362 -102.3125 46.625 C-103.93980019 53.50973156 -105.77118215 57.99980169 -111.90991211 61.99169922 C-116.72862078 64.31634199 -122.18003497 65.10481252 -127.375 66.25 C-138.54391354 68.87405213 -148.19564463 72.0616389 -158 78 C-158.92941406 78.54914063 -159.85882813 79.09828125 -160.81640625 79.6640625 C-167.65516472 83.94514726 -170.97128939 88.09657282 -173.3125 95.9375 C-175.47298001 102.20289203 -177.29462245 105.6657926 -183 109 C-190.00165413 112.34547315 -197.00035753 114.00806892 -204.625 115.25 C-205.62917969 115.42273438 -206.63335937 115.59546875 -207.66796875 115.7734375 C-210.11048976 116.19215539 -212.55422379 116.60082057 -215 117 C-215.97336958 119.56539077 -216.1453338 120.65000153 -215.07543945 123.2265625 C-214.59292725 124.01804688 -214.11041504 124.80953125 -213.61328125 125.625 C-212.8234082 126.93210938 -212.8234082 126.93210938 -212.01757812 128.265625 C-211.45490234 129.16796875 -210.89222656 130.0703125 -210.3125 131 C-209.76916016 131.90234375 -209.22582031 132.8046875 -208.66601562 133.734375 C-206.09050368 137.94488545 -203.70256119 141.67870834 -200 145 C-197.95396679 145.5171543 -197.95396679 145.5171543 -195.8125 145.3125 C-195.02101563 145.27769531 -194.22953125 145.24289063 -193.4140625 145.20703125 C-191.16416487 145.01407886 -188.92893544 144.77304759 -186.6875 144.5 C-185.12568234 144.32705597 -183.56313027 144.16064797 -182 144 C-181.19949219 143.90847656 -180.39898437 143.81695312 -179.57421875 143.72265625 C-153.91857718 142.20039676 -121.53045552 157.18822473 -102.3125 173.625 C-96.20769874 179.43571615 -92.93848331 185.24298665 -92.6875 193.75 C-92.9696275 214.93777553 -104.17085499 231.74390278 -117.68359375 247.0546875 C-128.10910311 259.01942731 -132.30133405 269.90591996 -135.22998047 285.22753906 C-137.64917534 297.8025816 -141.23771783 308.05495345 -150.3125 317.375 C-154.76666383 320.06821534 -159.07586501 321.29787453 -164.30078125 320.765625 C-171.12862017 319.02033975 -175.16318865 314.73083052 -179 309 C-186.0483738 296.08352253 -188.91046396 281.35137636 -191.87255859 267.07421875 C-195.9068598 247.70957298 -201.72069464 234.72213263 -218.1875 223 C-227.67267833 215.89075675 -230.29107796 205.37904849 -232 194 C-232.15765602 192.07748612 -232.28856448 190.15261704 -232.39453125 188.2265625 C-232.46349609 187.1540625 -232.53246094 186.0815625 -232.60351562 184.9765625 C-232.74230965 182.75066951 -232.8700024 180.52405522 -232.98632812 178.296875 C-233.64448405 168.58179468 -236.13037741 161.95806475 -243.21484375 155.19140625 C-247.57136186 151.76362693 -252.31733673 149.03285955 -257.07714844 146.20556641 C-278.83927301 133.21705176 -293.83137695 116.00022578 -306 94 C-308.69828268 98.04742402 -309.40558702 102.11315699 -310.5 106.8125 C-310.71269531 107.68326172 -310.92539062 108.55402344 -311.14453125 109.45117188 C-314.35837419 123.04592468 -315.37695034 136.27929419 -315.3125 150.1875 C-315.31067719 151.00426208 -315.30885437 151.82102417 -315.30697632 152.66253662 C-315.26179814 164.68522874 -314.79896925 176.26140949 -312 188 C-311.83371094 188.7523291 -311.66742188 189.5046582 -311.49609375 190.27978516 C-304.60542888 221.17931291 -289.74755503 249.97817417 -268 273 C-266.89140313 274.3087602 -265.78709026 275.62116359 -264.6875 276.9375 C-237.94981896 307.32122846 -197.62011843 326.14750642 -158 332 C-157.37311279 332.0942627 -156.74622559 332.18852539 -156.1003418 332.28564453 C-148.49898802 333.28839539 -140.84158198 333.24365832 -133.1875 333.25 C-132.45456726 333.25067474 -131.72163452 333.25134949 -130.9664917 333.25204468 C-119.08759773 333.23471623 -107.62420171 332.57583183 -96 330 C-95.23155762 329.83371094 -94.46311523 329.66742188 -93.67138672 329.49609375 C-74.31298419 325.17555754 -56.19645647 317.8182471 -39 308 C-38.0203125 307.45988281 -37.040625 306.91976563 -36.03125 306.36328125 C-35.3609375 305.91339844 -34.690625 305.46351563 -34 305 C-34 304.34 -34 303.68 -34 303 C-35.56700836 301.8357839 -35.56700836 301.8357839 -37.61328125 300.7578125 C-38.36673828 300.33113281 -39.12019531 299.90445312 -39.89648438 299.46484375 C-41.49488586 298.57842223 -43.09383622 297.69298965 -44.69335938 296.80859375 C-45.45068359 296.37933594 -46.20800781 295.95007813 -46.98828125 295.5078125 C-48.03302612 294.92990967 -48.03302612 294.92990967 -49.09887695 294.34033203 C-51.33362238 292.76478915 -52.53229503 291.30895484 -54 289 C-54.38476086 286.75866318 -54.38476086 286.75866318 -54.39872742 284.26702881 C-54.41753464 282.84520294 -54.41753464 282.84520294 -54.4367218 281.39465332 C-54.43456917 279.8453009 -54.43456917 279.8453009 -54.43237305 278.26464844 C-54.4425647 277.17166443 -54.45275635 276.07868042 -54.46325684 274.95257568 C-54.4934628 271.33812382 -54.50266464 267.72393666 -54.51171875 264.109375 C-54.52855975 261.60401524 -54.54670919 259.09866395 -54.56611633 256.59332275 C-54.60882245 250.67193056 -54.63832653 244.75056571 -54.66143972 238.82907319 C-54.69114832 231.42501981 -54.74134561 224.02112923 -54.79101562 216.6171875 C-54.87712703 203.4115227 -54.94500699 190.20582916 -55 177 C-55.8280011 176.73159805 -56.6560022 176.46319611 -57.50909424 176.18666077 C-58.59309509 175.83123703 -59.67709595 175.47581329 -60.79394531 175.10961914 C-61.86944641 174.75871719 -62.94494751 174.40781525 -64.05303955 174.04627991 C-74.65944026 170.28061554 -82.27420561 161.5006124 -87.1875 151.609375 C-89.92391462 142.8212742 -88.52266035 133.28294549 -84.7109375 125.09765625 C-83.42326505 122.76632233 -82.09999362 120.54553223 -80.6640625 118.30859375 C-74.70812279 109.1631416 -74.70812279 109.1631416 -73.9140625 98.421875 C-74.06358947 94.20793319 -72.52714259 91.2892967 -70 88 C-65.19477596 83.03864955 -61.18334308 78.90392878 -54 78.75 C-49.91102881 78.77333222 -46.09066225 79.31449688 -42.07739258 80.07592773 C-27.47779363 82.80951654 -12.79016629 82.27675678 2 82 C3.485 77.545 3.485 77.545 5 73 C2.3824187 70.36202196 1.13311738 70.0039864 -2.65234375 69.890625 C-4.08200663 69.99406098 -5.51049108 70.1147947 -6.9375 70.25 C-7.69675781 70.30792725 -8.45601563 70.36585449 -9.23828125 70.42553711 C-11.49394694 70.60045563 -13.7467633 70.79637265 -16 71 C-46.22370173 73.66577896 -46.22370173 73.66577896 -54 69 C-60.22151149 60.49726763 -60.05783999 47.13552433 -59 37 C-57.35774328 29.37281801 -54.98396936 23.12640308 -48.6953125 18.19140625 C-40.58242735 13.04995776 -32.12223026 9.04074342 -23 6 C-24.36352944 2.77070132 -25.67283974 1.2220939 -28.61328125 -0.6640625 C-29.35562012 -1.14141846 -30.09795898 -1.61877441 -30.86279297 -2.1105957 C-31.67119629 -2.61034912 -32.47959961 -3.11010254 -33.3125 -3.625 C-34.15699707 -4.14989014 -35.00149414 -4.67478027 -35.87158203 -5.21557617 C-88.75406191 -37.40300946 -162.24861989 -44.99010026 -217 -12 Z M-245.1875 6.0625 C-246.06305542 6.8213147 -246.06305542 6.8213147 -246.95629883 7.59545898 C-248.11937599 8.60483402 -249.27984004 9.61722899 -250.4375 10.6328125 C-251.70911891 11.74547905 -252.993376 12.8436892 -254.28125 13.9375 C-270.64732212 27.88890574 -290.24226209 48.99291427 -297 70 C-296.76848708 75.13537739 -294.69146082 79.2049839 -292.375 83.6875 C-292.015271 84.39156982 -291.65554199 85.09563965 -291.28491211 85.82104492 C-279.40541365 108.74065839 -262.65019753 124.37663543 -240.5625 137.1875 C-229.88281224 143.53519521 -222.04047503 152.08890628 -218.6184082 164.18334961 C-217.51673215 169.20112958 -217.2753569 174.25586484 -217 179.375 C-216.28037581 196.10566453 -216.28037581 196.10566453 -208.15234375 210.1484375 C-205.72651581 212.23526589 -203.18833695 214.04674737 -200.5625 215.875 C-182.30923205 228.77730995 -178.60909588 251.00584073 -174.12695312 271.51757812 C-170.45412745 288.73594242 -170.45412745 288.73594242 -162 304 C-159.35516222 302.99484934 -158.1709568 302.26587899 -156.62109375 299.85546875 C-152.93997408 291.55776336 -151.0431572 283.29070888 -149.29296875 274.4140625 C-146.02849727 258.31864696 -139.16781177 246.82805988 -128.5 234.5625 C-118.5789875 223.11397754 -109.5574985 210.12408644 -108.8046875 194.4921875 C-109.14573153 190.14046572 -110.81928044 187.74838874 -114 185 C-127.43707614 174.90840657 -142.50216647 168.54469056 -158.4375 163.5 C-159.52708008 163.14929443 -160.61666016 162.79858887 -161.73925781 162.43725586 C-169.88377665 159.96788058 -176.90964025 159.45257187 -185.3125 160.5 C-193.76250526 161.52060454 -202.49044201 162.53702462 -210 158 C-219.55274698 150.11898374 -230.94316966 133.4377407 -232.3359375 121 C-232.39711187 116.30180814 -232.37319806 112.83596365 -230.4375 108.5 C-224.12985584 102.03062138 -217.04802926 100.92691595 -208.4375 99.4375 C-198.69624082 98.10204843 -198.69624082 98.10204843 -190 94 C-188.45260144 90.93892214 -188.45260144 90.93892214 -187.5625 87.375 C-183.70247548 75.55139178 -177.67977151 69.99402176 -167 64 C-165.88625 63.32839844 -164.7725 62.65679687 -163.625 61.96484375 C-152.74553655 55.58548139 -141.28786262 52.59111703 -128.97265625 50.20703125 C-127.22275391 49.85705078 -127.22275391 49.85705078 -125.4375 49.5 C-124.42558594 49.3246875 -123.41367188 49.149375 -122.37109375 48.96875 C-119.85796763 48.21192528 -119.85796763 48.21192528 -118.73828125 45.9765625 C-117.74295915 41.96367657 -117.19821067 37.98140071 -116.75 33.875 C-116.5953125 32.65876953 -116.5953125 32.65876953 -116.4375 31.41796875 C-116.34984375 30.63808594 -116.2621875 29.85820313 -116.171875 29.0546875 C-116.0903418 28.34812012 -116.00880859 27.64155273 -115.92480469 26.91357422 C-115.84654905 24.66510801 -115.84654905 24.66510801 -118 22 C-120.80743812 21.27597648 -123.52919124 20.69849334 -126.375 20.1875 C-137.55714346 17.92976987 -146.39208193 13.81450072 -155.16015625 6.41796875 C-159.53782059 3.04410005 -164.75266278 3.65972602 -170 4 C-175.6265897 4.84823841 -181.18129882 6.05170868 -186.74804688 7.22265625 C-197.69527254 9.40586365 -208.05009291 10.3261933 -218.75 6.6875 C-219.46881348 6.4603833 -220.18762695 6.2332666 -220.92822266 5.99926758 C-222.95942853 5.35276587 -224.98067769 4.68258782 -227 4 C-228.47339844 3.505 -228.47339844 3.505 -229.9765625 3 C-230.76804687 2.731875 -231.55953125 2.46375 -232.375 2.1875 C-238.66565294 0.12676887 -240.56789854 1.98560433 -245.1875 6.0625 Z M-18.5625 21.625 C-19.52736328 21.95628906 -20.49222656 22.28757812 -21.48632812 22.62890625 C-29.37047812 25.45037789 -37.25613519 28.7753662 -42 36 C-43.06375135 39.19125404 -43.13335484 41.52470971 -43.125 44.875 C-43.12757813 45.90367187 -43.13015625 46.93234375 -43.1328125 47.9921875 C-43.00968936 50.78056442 -42.57888449 53.27803569 -42 56 C-33.86983943 56.13012594 -25.90434938 55.76916744 -17.8125 55 C6.98273809 52.67003477 6.98273809 52.67003477 15.73828125 59.3203125 C19.72003268 63.61919458 20.90861637 68.72094046 21.06640625 74.3828125 C20.69418143 81.57915897 18.36455878 88.32343953 13.44140625 93.703125 C6.65455801 99.59295839 -1.68552746 98.23573089 -10.125 98.25 C-10.90689697 98.25333344 -11.68879395 98.25666687 -12.49438477 98.26010132 C-24.03796699 98.29041224 -35.20449068 97.66459146 -46.62158203 95.80371094 C-48.03093018 95.58569824 -48.03093018 95.58569824 -49.46875 95.36328125 C-50.27763672 95.22188721 -51.08652344 95.08049316 -51.91992188 94.93481445 C-54.091449 94.80309457 -54.091449 94.80309457 -55.76879883 96.33007812 C-57.49096283 98.66591032 -57.23120341 100.30704818 -57.1875 103.1875 C-57.75068125 112.87891075 -63.05923571 120.9754237 -67.86328125 129.18359375 C-71.13136894 134.8072005 -73.11009074 138.45046462 -72 145 C-68.99742879 151.26623557 -63.20182043 157.37466405 -56.6628418 159.90405273 C-50.96486141 161.44027043 -47.39992542 161.19742133 -42.15234375 158.44140625 C-40.06179109 157.17928711 -37.99087589 155.88424227 -35.9375 154.5625 C-34.22178745 153.5151574 -32.50604386 152.46786168 -30.78848267 151.42355347 C-29.01696519 150.34131589 -27.25396744 149.24614693 -25.49169922 148.14892578 C-20.0755548 144.79373055 -14.5314924 141.65983248 -9 138.5 C-6.84709189 137.25879089 -4.6947502 136.01659878 -2.54296875 134.7734375 C1.93155169 132.19175031 6.40840857 129.61416986 10.88671875 127.0390625 C22.32032959 120.46078718 33.73299389 113.86060273 45 107 C37.96925323 73.4651881 19.16337166 41.28158908 -6 18 C-10.29739187 18 -14.55643377 20.19333241 -18.5625 21.625 Z M49.03125 123.75390625 C47.99871094 124.35332031 46.96617187 124.95273438 45.90234375 125.5703125 C44.21818359 126.55644531 44.21818359 126.55644531 42.5 127.5625 C41.32448406 128.24654988 40.14869853 128.93013667 38.97265625 129.61328125 C36.52629074 131.03482132 34.08110537 132.45836082 31.63671875 133.88330078 C26.10194822 137.10757262 20.54998625 140.3020194 15 143.5 C12.86067652 144.73567611 10.72135361 145.9713532 8.58203125 147.20703125 C4.58855959 149.51162854 0.59059864 151.808027 -3.4133606 154.09432983 C-5.80537117 155.46063872 -8.19559708 156.83005286 -10.58569336 158.19970703 C-12.26828963 159.16221014 -13.95344836 160.12022931 -15.63867188 161.078125 C-17.17297852 161.95791016 -17.17297852 161.95791016 -18.73828125 162.85546875 C-20.08466675 163.62346802 -20.08466675 163.62346802 -21.45825195 164.40698242 C-24.14734649 166.09234808 -26.56051152 167.97363079 -29 170 C-26.28523614 171.71154965 -23.55126836 173.38967909 -20.8125 175.0625 C-20.04357422 175.54783203 -19.27464844 176.03316406 -18.48242188 176.53320312 C-17.73154297 176.98759766 -16.98066406 177.44199219 -16.20703125 177.91015625 C-15.5210083 178.33433838 -14.83498535 178.75852051 -14.12817383 179.19555664 C-11.31163254 180.26020085 -9.85471607 179.89419218 -7 179 C-4.58849653 177.85251119 -4.58849653 177.85251119 -2.17578125 176.3671875 C-0.77706787 175.54069702 -0.77706787 175.54069702 0.64990234 174.69750977 C1.65230957 174.09608154 2.6547168 173.49465332 3.6875 172.875 C5.86025981 171.58913841 8.03345157 170.30400648 10.20703125 169.01953125 C11.32932129 168.3538916 12.45161133 167.68825195 13.60791016 167.00244141 C19.00694853 163.81524457 24.44081907 160.68926951 29.875 157.5625 C30.93759033 156.94898682 32.00018066 156.33547363 33.0949707 155.70336914 C38.20423589 152.75422464 43.31858884 149.81470981 48.44821167 146.90113831 C50.84823458 145.53714293 53.24554995 144.16842884 55.64263916 142.79928589 C57.33447819 141.835582 59.03023325 140.87876322 60.72607422 139.92211914 C61.7523291 139.33551514 62.77858398 138.74891113 63.8359375 138.14453125 C64.73876465 137.63253174 65.6415918 137.12053223 66.57177734 136.59301758 C69.06021571 134.96049593 70.97793069 133.1742396 73 131 C70.21251481 129.32626249 67.41935573 127.66223733 64.625 126 C63.8309375 125.52304688 63.036875 125.04609375 62.21875 124.5546875 C61.45820313 124.10351562 60.69765625 123.65234375 59.9140625 123.1875 C58.8614624 122.55908203 58.8614624 122.55908203 57.78759766 121.91796875 C54.18674075 120.06885349 52.29833967 121.84743147 49.03125 123.75390625 Z M85.1796875 144.5703125 C84.18219482 145.12960449 83.18470215 145.68889648 82.15698242 146.26513672 C80.53240112 147.18576904 80.53240112 147.18576904 78.875 148.125 C77.1895105 149.07463623 77.1895105 149.07463623 75.4699707 150.04345703 C67.0251101 154.81023935 58.63881363 159.67587228 50.27539062 164.58398438 C44.69596189 167.85544193 39.10051956 171.09586308 33.48046875 174.296875 C32.84628525 174.65818512 32.21210175 175.01949524 31.55870056 175.39175415 C28.46187187 177.15503975 25.36321689 178.91503454 22.26245117 180.67138672 C21.14201416 181.30834473 20.02157715 181.94530273 18.8671875 182.6015625 C17.87831543 183.16182129 16.88944336 183.72208008 15.87060547 184.29931641 C12.83213034 186.09945399 9.92139844 188.01682928 7 190 C10.46265126 192.95343784 13.70579108 195.4225355 18 197 C24.14947783 195.67476369 29.41218339 191.99710594 34.75 188.8125 C36.91367549 187.53580222 39.07775166 186.25978329 41.2421875 184.984375 C42.35819336 184.32501953 43.47419922 183.66566406 44.62402344 182.98632812 C50.0212626 179.81074686 55.44760718 176.68617636 60.875 173.5625 C63.02867619 172.32166728 65.18232175 171.08078138 67.3359375 169.83984375 C68.41713867 169.21706543 69.49833984 168.59428711 70.61230469 167.95263672 C74.19331946 165.88857242 77.77265987 163.8216295 81.3515625 161.75390625 C83.15185866 160.71407145 84.95217831 159.67427733 86.75250244 158.63449097 C88.46915208 157.64282016 90.1855065 156.65063837 91.90185547 155.65844727 C92.93455566 155.06217529 93.96725586 154.46590332 95.03125 153.8515625 C96.40120117 153.05999756 96.40120117 153.05999756 97.79882812 152.25244141 C99.17988691 151.46663489 100.57878495 150.71060752 102 150 C100.77974937 146.3392481 99.873509 146.07660559 96.5625 144.3125 C95.75941406 143.87550781 94.95632813 143.43851563 94.12890625 142.98828125 C90.31396626 141.21730911 88.68393736 142.59881272 85.1796875 144.5703125 Z M114.6171875 161.3515625 C113.71009033 161.86565674 112.80299316 162.37975098 111.8684082 162.90942383 C110.38667114 163.75863403 110.38667114 163.75863403 108.875 164.625 C107.84528076 165.21112061 106.81556152 165.79724121 105.75463867 166.40112305 C97.59587619 171.0568209 89.48028848 175.78560951 81.37475586 180.53320312 C69.90635027 187.24350976 58.3609675 193.81828468 46.81591797 200.39550781 C43.54229609 202.26079678 40.27073388 204.1296529 37 206 C38.49743579 210.49230737 41.76118707 211.56177017 45.75 213.8125 C46.82507813 214.4612207 46.82507813 214.4612207 47.921875 215.12304688 C48.97375 215.72149414 48.97375 215.72149414 50.046875 216.33203125 C50.68463867 216.70046143 51.32240234 217.0688916 51.97949219 217.44848633 C55.6988743 218.46372125 58.48749485 216.27413493 61.7253418 214.54223633 C62.70672119 213.97786865 63.68810059 213.41350098 64.69921875 212.83203125 C65.81264648 212.19378418 66.92607422 211.55553711 68.07324219 210.89794922 C69.27804914 210.20289367 70.48280029 209.5077414 71.6875 208.8125 C72.94288672 208.09105251 74.19842292 207.36986506 75.45410156 206.64892578 C78.68120292 204.7949706 81.90596414 202.93698535 85.13006592 201.07781982 C86.90920925 200.05233129 88.68904049 199.02805128 90.46923828 198.00439453 C96.90861029 194.30158969 103.34292075 190.59019111 109.77148438 186.86865234 C111.99091721 185.58405321 114.2110061 184.30058711 116.43164062 183.01806641 C119.78968781 181.07785083 123.14518279 179.13329398 126.5 177.1875 C127.52770508 176.59437012 128.55541016 176.00124023 129.61425781 175.39013672 C131.02723145 174.56860107 131.02723145 174.56860107 132.46875 173.73046875 C133.71301758 173.00960083 133.71301758 173.00960083 134.98242188 172.27416992 C137.1173545 171.0295068 137.1173545 171.0295068 139 169 C136.04550087 167.3264663 133.0857982 165.66236015 130.125 164 C129.28324219 163.52304688 128.44148438 163.04609375 127.57421875 162.5546875 C126.76855469 162.10351562 125.96289062 161.65234375 125.1328125 161.1875 C124.38918457 160.76855469 123.64555664 160.34960938 122.87939453 159.91796875 C119.40779939 158.22230783 117.79227463 159.54444124 114.6171875 161.3515625 Z M142.56640625 186.53515625 C141.62104004 187.08937256 140.67567383 187.64358887 139.70166016 188.21459961 C138.14777588 189.1293103 138.14777588 189.1293103 136.5625 190.0625 C134.35318293 191.35731418 132.14353651 192.65156651 129.93359375 193.9453125 C129.36161255 194.28036301 128.78963135 194.61541351 128.20031738 194.96061707 C122.19025287 198.47898709 116.15919651 201.96070376 110.125 205.4375 C109.05983154 206.05165771 107.99466309 206.66581543 106.8972168 207.29858398 C101.81812786 210.22632331 96.73751941 213.15140375 91.65493774 216.07307434 C89.8749866 217.09649255 88.09539331 218.12053013 86.31591797 219.14477539 C84.08650663 220.42778627 81.85640624 221.70960088 79.62548828 222.98999023 C78.61212402 223.57337158 77.59875977 224.15675293 76.5546875 224.7578125 C75.67280762 225.2645752 74.79092773 225.77133789 73.88232422 226.29345703 C72.93115723 226.85661621 71.97999023 227.41977539 71 228 C70.34014917 228.3060444 69.68029835 228.61208879 69.00045204 228.92740726 C64.71511766 231.07850713 64.71511766 231.07850713 62.27332878 235.00420761 C62.01298604 237.52568332 62.00982383 239.93812157 62.09179688 242.47192383 C62.09062866 243.41875031 62.08946045 244.36557678 62.08825684 245.34109497 C62.09382197 248.46457644 62.15599946 251.58421881 62.21875 254.70703125 C62.23367412 256.87462783 62.24506033 259.04225142 62.25305176 261.20988464 C62.28357188 266.91029598 62.3621358 272.60907196 62.45068359 278.30883789 C62.53257661 284.12689082 62.56907074 289.9452085 62.609375 295.76367188 C62.69512852 307.1764991 62.83163565 318.58811347 63 330 C64.74652147 329.04756421 66.49301709 328.09508103 68.23950195 327.14257812 C69.2120845 326.61216919 70.18466705 326.08176025 71.1867218 325.53527832 C83.06850805 319.05108175 94.83333701 312.3915284 106.51196289 305.54736328 C112.02995952 302.31396013 117.55619565 299.09632654 123.1015625 295.91015625 C123.69020081 295.5717421 124.27883911 295.23332794 124.88531494 294.88465881 C127.73783298 293.24514742 130.59163822 291.60797238 133.44726562 289.97387695 C134.47787109 289.38179443 135.50847656 288.78971191 136.5703125 288.1796875 C137.47539551 287.66132324 138.38047852 287.14295898 139.31298828 286.60888672 C140.19970215 286.0779541 141.08641602 285.54702148 142 285 C143.03137085 284.49983368 144.0627417 283.99966736 145.12536621 283.48434448 C148.20779121 280.82042062 148.4228083 280.60220704 148.7215271 276.83648682 C148.73890893 275.10489334 148.72298813 273.37277685 148.68115234 271.64160156 C148.6820285 270.69492111 148.68290466 269.74824066 148.68380737 268.77287292 C148.67962807 265.64461673 148.63295869 262.51850641 148.5859375 259.390625 C148.57474661 257.22158988 148.56620592 255.05253959 148.56021118 252.88348389 C148.5373047 247.17517202 148.47836461 241.46777652 148.4119873 235.75982666 C148.35060469 229.93506264 148.32320469 224.1101505 148.29296875 218.28515625 C148.2286241 206.85636826 148.12622167 195.42826034 148 184 C146.03252675 184 144.20289779 185.57246771 142.56640625 186.53515625 Z M-38 185 C-38 217.01 -38 249.02 -38 282 C-29.75 286.62 -21.5 291.24 -13 296 C-1.0625 302.9375 -1.0625 302.9375 4.8359375 306.39453125 C11.56071969 310.3349526 18.30980311 314.23269161 25.0625 318.125 C26.69529907 319.06653931 26.69529907 319.06653931 28.36108398 320.02709961 C30.36629102 321.18270931 32.37233181 322.33687408 34.37939453 323.48925781 C35.99960834 324.42328828 37.61600922 325.36401159 39.22607422 326.31542969 C42.3974623 328.3394879 42.3974623 328.3394879 46 329 C46.20857902 316.58710487 46.36846936 304.17462686 46.46630955 291.76033592 C46.51327023 285.99568136 46.57695699 280.23222601 46.67895508 274.46826172 C46.77678544 268.90496684 46.83056607 263.34282479 46.85389519 257.77873611 C46.87051832 255.65670238 46.90298162 253.53473144 46.95157051 251.41318893 C47.7289742 240.3847377 47.7289742 240.3847377 44.13204956 230.43634033 C41.7817713 228.82304777 39.70061369 227.88238066 37 227 C35.48212891 226.16855469 35.48212891 226.16855469 33.93359375 225.3203125 C32.69802734 224.72863281 32.69802734 224.72863281 31.4375 224.125 C30.59058594 223.71507812 29.74367188 223.30515625 28.87109375 222.8828125 C27.94490234 222.44582031 27.94490234 222.44582031 27 222 C26.98541748 223.04454346 26.97083496 224.08908691 26.95581055 225.1652832 C26.89784449 229.04014345 26.82061226 232.91442151 26.73754883 236.78881836 C26.70429137 238.46580559 26.67626192 240.14290497 26.65356445 241.82006836 C26.62003263 244.23079225 26.56772022 246.64048762 26.51171875 249.05078125 C26.50532883 249.80087967 26.4989389 250.55097809 26.49235535 251.32380676 C26.3457375 256.51249721 26.3457375 256.51249721 24.62817383 258.93432617 C21.89665445 260.72216274 20.31425451 261 17 261 C9.51675788 257.95519557 2.51035449 253.52530335 -4.4375 249.4375 C-5.41654297 248.87353516 -6.39558594 248.30957031 -7.40429688 247.72851562 C-8.34208984 247.17744141 -9.27988281 246.62636719 -10.24609375 246.05859375 C-11.50957642 245.32080688 -11.50957642 245.32080688 -12.79858398 244.56811523 C-15.32072332 242.77154199 -16.61380034 241.79302981 -18 239 C-18.27979909 235.76493957 -18.08102909 232.57435866 -17.9140625 229.3359375 C-17.86809969 227.38941962 -17.82657559 225.44279281 -17.7890625 223.49609375 C-17.71946153 220.43708216 -17.62576241 217.38864673 -17.45507812 214.33349609 C-16.45129841 203.01650344 -16.45129841 203.01650344 -20.70300293 193.05383301 C-25.29200038 189.3868405 -31.92360009 185 -38 185 Z M-2 205 C-2.26221814 209.20714438 -2.42147604 213.41218891 -2.5625 217.625 C-2.63791016 218.81480469 -2.71332031 220.00460937 -2.79101562 221.23046875 C-3.11422327 227.72313688 -3.11422327 227.72313688 -0.06201172 233.13964844 C3.18453919 235.34085601 6.28561725 236.76187242 10 238 C11.86205133 223.66541805 11.86205133 223.66541805 8.93652344 210.08154297 C6.14893526 207.26069723 2.79032358 205.93427633 -1 205 C-1.33 205 -1.66 205 -2 205 Z " fill="#000000" transform="translate(340,85)"/>
<path d="M0 0 C2.90772417 2.678167 3.90207817 4.18398475 4.375 8.125 C4 11 4 11 2 14 C3.14494572 14.00219984 3.14494572 14.00219984 4.31302166 14.00444412 C22.88296085 14.04149055 41.45271158 14.10047645 60.02250195 14.18390274 C69.00271595 14.22371762 77.98284201 14.25609764 86.96313477 14.27099609 C94.79007297 14.28399995 102.61681786 14.31093209 110.44364721 14.35461307 C114.58820765 14.37725653 118.73252942 14.39290896 122.87715721 14.39188385 C126.77854191 14.39113893 130.67939845 14.40902152 134.58064651 14.44116783 C136.01208526 14.44968389 137.44358313 14.45140515 138.87503624 14.44580269 C140.83075187 14.43916814 142.78650343 14.45943439 144.74211121 14.48101807 C145.83627948 14.48470524 146.93044775 14.48839241 148.05777264 14.49219131 C151.71440514 15.12330153 153.38534133 16.40969464 156 19 C157.23674251 22.63293114 157.34458203 24.24191953 155.75 27.75 C154 30 154 30 151 32 C148.30386829 32.26171303 148.30386829 32.26171303 144.98262024 32.2784729 C143.72478729 32.28963638 142.46695435 32.30079987 141.17100525 32.31230164 C139.77456695 32.31466667 138.37812832 32.31684231 136.98168945 32.31884766 C135.51327969 32.32814437 134.04487522 32.33831266 132.57647705 32.34928894 C128.58712376 32.37663205 124.59780586 32.39175107 120.60838342 32.40471697 C116.44031216 32.42032869 112.27231339 32.44712512 108.10429382 32.4727478 C100.21020184 32.51957035 92.31609627 32.5562976 84.42193621 32.58942068 C75.43529399 32.62761754 66.4487245 32.67703406 57.46214354 32.72740483 C38.97481556 32.83077636 20.48744322 32.92001976 2 33 C2.66 33.99 3.32 34.98 4 36 C4.48818681 39.74276552 4.2768939 41.52076055 2.375 44.8125 C-0.58425608 47.5381306 -1.97886453 48.07884579 -6 48 C-11.38414677 45.2720323 -15.95629831 41.86293705 -20.625 38.0625 C-21.26695312 37.55009766 -21.90890625 37.03769531 -22.5703125 36.50976562 C-32.77057941 28.28475532 -32.77057941 28.28475532 -33.625 23.5 C-32.06910868 14.78700863 -18.94708579 7.06391349 -11.9375 1.9375 C-7.56179254 -0.94860492 -5.03053685 -1.43729624 0 0 Z " fill="#000000" transform="translate(333,429)"/>
<path d="M0 0 C2.60546875 1.43359375 2.60546875 1.43359375 5.1875 3.4375 C6.60095703 4.52417969 6.60095703 4.52417969 8.04296875 5.6328125 C9.01878906 6.41398438 9.99460937 7.19515625 11 8 C12.00675781 8.80179688 13.01351562 9.60359375 14.05078125 10.4296875 C16.72686448 12.59182097 19.38694142 14.76212719 22 17 C22.88171875 17.75216797 22.88171875 17.75216797 23.78125 18.51953125 C25.60605803 20.7362051 25.46306135 23.09005364 25.59375 25.8671875 C23.63902052 32.88878155 13.56912728 38.47044315 8 43 C7.32195312 43.58007812 6.64390625 44.16015625 5.9453125 44.7578125 C2.98099597 47.14839035 0.57056131 48.33494766 -3.1875 48.5625 C-7 48 -7 48 -9.4375 46.25 C-11.03732573 43.94625094 -11.8361729 42.78506062 -12 40 C-11.36348049 37.99020216 -10.69909458 35.98889698 -10 34 C-10.71552536 33.99413376 -11.43105072 33.98826752 -12.16825867 33.98222351 C-18.92162426 33.92424536 -25.67467535 33.85213964 -32.42772198 33.76428509 C-35.89930066 33.71961627 -39.37076294 33.68035293 -42.8425293 33.65356445 C-46.8367256 33.62250545 -50.83029368 33.56771812 -54.82421875 33.51171875 C-56.06709152 33.50532883 -57.30996429 33.4989389 -58.59049988 33.49235535 C-59.75132584 33.47256119 -60.91215179 33.45276703 -62.1081543 33.43237305 C-63.12741501 33.42126999 -64.14667572 33.41016693 -65.19682312 33.39872742 C-69.13532967 32.83850928 -71.95725937 31.37452174 -74.375 28.1875 C-75.26089715 25.08685996 -74.89945179 23.08383471 -74 20 C-71.85137945 17.23992421 -70.68089393 16.12634793 -67.20318604 15.48101807 C-66.12841003 15.47213562 -65.05363403 15.46325317 -63.94628906 15.45410156 C-62.11484344 15.42452362 -62.11484344 15.42452362 -60.24639893 15.39434814 C-58.93274353 15.39311951 -57.61908813 15.39189087 -56.265625 15.390625 C-54.90368688 15.37564007 -53.54176691 15.35891225 -52.17987061 15.34051514 C-48.60259152 15.2968633 -45.02555754 15.27684777 -41.44805908 15.26177979 C-37.7946525 15.24220054 -34.14151032 15.20023159 -30.48828125 15.16015625 C-23.32559195 15.08487793 -16.16301371 15.03457256 -9 15 C-9.99 14.01 -9.99 14.01 -11 13 C-11.95160582 10.06588205 -12.09829808 8.37531996 -11.3125 5.375 C-8.52009764 0.32208145 -5.61246705 -0.50959824 0 0 Z " fill="#000000" transform="translate(479,142)"/>
</svg>
