<svg width="16" height="16" viewBox="0 0 16 16" fill="none" xmlns="http://www.w3.org/2000/svg">
<rect width="16" height="16" rx="8" fill="#34C759"/>
<g clip-path="url(#clip0_560_1379)">
<path d="M9.85938 4.65608C9.86899 4.66311 9.87859 4.67014 9.88849 4.67738C10.0893 4.83545 10.1695 5.08208 10.2139 5.32405C10.2693 5.89996 10.0409 6.48737 9.74757 6.97312C9.73922 6.98696 9.73087 7.00081 9.72227 7.01508C9.71595 7.02551 9.70964 7.03595 9.70313 7.0467C9.72143 7.04679 9.72143 7.04679 9.74011 7.04688C9.85616 7.04747 9.9722 7.04837 10.0882 7.04958C10.1479 7.05019 10.2075 7.05069 10.2672 7.05094C10.3249 7.05118 10.3826 7.05172 10.4404 7.05246C10.4622 7.05269 10.4841 7.05281 10.5059 7.05283C10.7063 7.05307 10.8994 7.08638 11.0791 7.17952C11.0893 7.18477 11.0996 7.19002 11.1101 7.19543C11.3755 7.33889 11.5655 7.57233 11.6557 7.86049C11.7076 8.05816 11.6912 8.24755 11.6529 8.44603C11.6492 8.46596 11.6455 8.48588 11.6417 8.50641C11.6317 8.56043 11.6215 8.6144 11.6112 8.66837C11.6004 8.72541 11.5897 8.78249 11.5791 8.83957C11.5612 8.93548 11.5431 9.03136 11.5249 9.12723C11.5041 9.23715 11.4834 9.3471 11.4629 9.45707C11.4408 9.57528 11.4186 9.69347 11.3963 9.81165C11.39 9.84516 11.3838 9.87868 11.3775 9.91219C11.1609 11.0674 11.1609 11.0674 10.7176 11.3947C10.5407 11.5097 10.3549 11.5649 10.1444 11.5644C10.1325 11.5645 10.1206 11.5645 10.1083 11.5645C10.0685 11.5646 10.0288 11.5646 9.989 11.5646C9.96043 11.5646 9.93185 11.5647 9.90328 11.5648C9.82577 11.5649 9.74826 11.5649 9.67074 11.5649C9.62228 11.565 9.57382 11.565 9.52537 11.565C9.35622 11.5652 9.18707 11.5652 9.01792 11.5652C8.8604 11.5652 8.70288 11.5654 8.54535 11.5656C8.40999 11.5658 8.27462 11.5659 8.13925 11.5659C8.05846 11.5659 7.97767 11.5659 7.89688 11.5661C7.82086 11.5663 7.74485 11.5663 7.66884 11.5661C7.641 11.5661 7.61317 11.5662 7.58534 11.5663C7.54721 11.5664 7.50909 11.5663 7.47096 11.5662C7.46006 11.5663 7.44917 11.5664 7.43794 11.5664C7.35662 11.5659 7.28181 11.5511 7.20313 11.5311C7.20063 10.9597 7.1987 10.3883 7.19754 9.81684C7.19741 9.74939 7.19727 9.68193 7.19712 9.61448C7.19709 9.60105 7.19706 9.58762 7.19703 9.57378C7.19656 9.35632 7.1957 9.13886 7.19469 8.92139C7.19367 8.69827 7.19306 8.47514 7.19284 8.25202C7.19269 8.11433 7.19221 7.97664 7.19133 7.83895C7.19075 7.74454 7.19057 7.65014 7.19071 7.55573C7.19078 7.50125 7.19068 7.44678 7.19009 7.39231C7.18955 7.33321 7.18968 7.27416 7.18998 7.21507C7.18966 7.19788 7.18934 7.18069 7.18901 7.16298C7.19016 7.07915 7.19492 7.02922 7.25553 6.96837C7.27442 6.95269 7.29341 6.93713 7.3125 6.9217C7.32946 6.90347 7.34611 6.88494 7.36231 6.86604C7.37137 6.85553 7.38044 6.84501 7.38977 6.83418C7.40037 6.82181 7.41096 6.80945 7.42188 6.7967C7.44212 6.77332 7.44212 6.77332 7.46277 6.74946C7.65535 6.5266 7.84156 6.29998 8.01563 6.06233C8.02366 6.05144 8.03169 6.04056 8.03996 6.02934C8.34819 5.61104 8.62516 5.17521 8.84876 4.70552C8.85425 4.69409 8.85975 4.68267 8.86541 4.67089C8.87527 4.65021 8.88495 4.62944 8.89437 4.60855C8.93161 4.53033 8.98077 4.47261 9.06324 4.4405C9.348 4.41089 9.63054 4.4839 9.85938 4.65608Z" fill="white"/>
<path d="M5.0354 6.91921C5.04839 6.9191 5.06138 6.919 5.07477 6.91889C5.11774 6.91859 5.1607 6.9184 5.20367 6.91825C5.2184 6.91818 5.23312 6.91812 5.24829 6.91806C5.3263 6.91773 5.4043 6.91751 5.48231 6.91736C5.56255 6.91719 5.64278 6.91665 5.72302 6.91603C5.78499 6.91562 5.84696 6.91549 5.90894 6.91543C5.9385 6.91536 5.96805 6.91518 5.99761 6.91489C6.29502 6.91214 6.29502 6.91214 6.4375 6.98447C6.45079 6.99102 6.46409 6.99757 6.47779 7.00432C6.57649 7.05794 6.65668 7.1245 6.71875 7.21885C6.73545 7.27576 6.73564 7.32893 6.73451 7.38796C6.7347 7.40445 6.73488 7.42095 6.73507 7.43794C6.73553 7.49294 6.7351 7.54789 6.73467 7.60288C6.73482 7.64242 6.73501 7.68195 6.73526 7.72149C6.73571 7.81755 6.73558 7.91359 6.73516 8.00966C6.73484 8.08775 6.73476 8.16584 6.73486 8.24393C6.73488 8.25506 6.73489 8.2662 6.73491 8.27767C6.73494 8.30029 6.73497 8.32291 6.735 8.34552C6.73528 8.55739 6.7348 8.76925 6.73406 8.98112C6.73343 9.16277 6.73342 9.34441 6.73386 9.52606C6.73438 9.73721 6.73454 9.94836 6.73412 10.1595C6.73408 10.182 6.73403 10.2046 6.73399 10.2271C6.73396 10.2437 6.73396 10.2437 6.73393 10.2607C6.7338 10.3387 6.73392 10.4166 6.73413 10.4946C6.73441 10.5996 6.7341 10.7046 6.7334 10.8096C6.73323 10.8481 6.73325 10.8866 6.73347 10.9252C6.73373 10.9778 6.73332 11.0304 6.73274 11.083C6.73297 11.0982 6.73321 11.1134 6.73345 11.1291C6.7314 11.2279 6.70779 11.2782 6.63843 11.3488C6.47565 11.4963 6.30085 11.5648 6.08071 11.5651C6.0688 11.5652 6.0569 11.5653 6.04463 11.5653C6.00546 11.5656 5.96629 11.5657 5.92712 11.5658C5.91365 11.5658 5.90018 11.5659 5.8863 11.5659C5.81496 11.5661 5.74363 11.5663 5.67229 11.5663C5.59906 11.5664 5.52583 11.5668 5.4526 11.5673C5.3959 11.5675 5.33919 11.5676 5.28249 11.5677C5.25552 11.5677 5.22855 11.5678 5.20157 11.568C4.9434 11.5699 4.71797 11.5386 4.51855 11.3565C4.31433 11.1328 4.30548 10.8799 4.30618 10.5941C4.30609 10.5611 4.30598 10.5282 4.30586 10.4952C4.30558 10.4062 4.3056 10.3172 4.30569 10.2281C4.30573 10.1536 4.30564 10.0791 4.30554 10.0046C4.30532 9.82875 4.30535 9.65289 4.30553 9.47703C4.30571 9.29598 4.30549 9.11494 4.30507 8.9339C4.30472 8.77808 4.30462 8.62226 4.30471 8.46644C4.30476 8.37355 4.30473 8.28065 4.30446 8.18775C4.30421 8.10037 4.30428 8.013 4.30457 7.92562C4.30463 7.89368 4.30458 7.86174 4.30441 7.8298C4.30315 7.56363 4.33481 7.3343 4.51562 7.1251C4.67184 6.99108 4.83034 6.91991 5.0354 6.91921Z" fill="white"/>
</g>
<defs>
<clipPath id="clip0_560_1379">
<rect width="8" height="8" fill="white" transform="translate(4 4)"/>
</clipPath>
</defs>
</svg>
