<?xml version="1.0" encoding="UTF-8"?>
<svg version="1.1" xmlns="http://www.w3.org/2000/svg" width="512" height="512">
<path d="M0 0 C1.20135086 -0.01051392 1.20135086 -0.01051392 2.42697144 -0.02124023 C5.06413898 -0.03878475 7.70022459 -0.02720379 10.33740234 -0.01367188 C12.1833822 -0.01636941 14.02936067 -0.020254 15.87533569 -0.02526855 C19.74385103 -0.03116016 23.6119965 -0.02261751 27.48046875 -0.00390625 C32.40958748 0.01878711 37.33783027 0.00581943 42.26691628 -0.01819611 C46.08139474 -0.03274554 49.89567044 -0.02800486 53.71015549 -0.01768494 C55.52560914 -0.01503782 57.3410819 -0.01821554 59.15651321 -0.02760315 C73.57647364 -0.0857695 84.99566601 1.52394066 96.79833984 10.51757812 C97.82958984 11.26007813 98.86083984 12.00257812 99.92333984 12.76757812 C107.64411239 20.15266491 114.09885376 30.66378004 114.95947266 41.55712891 C115.3341065 60.78978509 115.3341065 60.78978509 111.79833984 68.51757812 C111.39615234 69.41605469 110.99396484 70.31453125 110.57958984 71.24023438 C105.09762267 82.31076252 97.29267249 88.46520383 86.79833984 94.51757812 C88.31665373 101.99725788 89.83796993 109.47632471 91.36083984 116.95507812 C91.58632507 118.06271515 91.8118103 119.17035217 92.04412842 120.31155396 C95.22401795 135.92172769 98.45344519 151.51968014 101.81616211 167.09155273 C102.21339478 168.94018921 102.21339478 168.94018921 102.61865234 170.82617188 C102.8482666 171.88634521 103.07788086 172.94651855 103.31445312 174.03881836 C103.79833984 176.51757812 103.79833984 176.51757812 103.79833984 178.51757812 C104.82435303 178.49401245 104.82435303 178.49401245 105.87109375 178.4699707 C132.24477919 177.9444483 154.35217187 181.45047202 174.44555664 200.05175781 C188.96164061 214.14780796 196.81078199 232.8105208 197.29833984 252.89257812 C197.34450439 254.01635864 197.34450439 254.01635864 197.39160156 255.1628418 C197.39287234 260.86416526 195.68201354 264.35782443 191.79833984 268.51757812 C188.74858998 270.64316136 187.70582837 270.51757812 183.79833984 270.51757812 C184.17345703 271.11183594 184.54857422 271.70609375 184.93505859 272.31835938 C193.49199039 286.17757133 198.39985076 299.3995155 198.23583984 315.83007812 C198.22681641 316.92312256 198.21779297 318.01616699 198.20849609 319.14233398 C197.76110955 340.12134537 189.10486369 357.67900531 174.72021484 372.68554688 C158.14200447 388.55764829 137.57744138 393.05798 115.34912109 392.78710938 C95.25804487 392.20736688 77.89108328 382.17022946 64.17333984 367.89257812 C55.245541 357.6216591 48.72181215 344.98188427 46.79833984 331.51757812 C-13.26166016 331.84757812 -73.32166016 332.17757813 -135.20166016 332.51757812 C-137.67666016 339.94257812 -137.67666016 339.94257812 -140.20166016 347.51757812 C-144.43103861 356.70702034 -149.99174478 364.41915629 -157.20166016 371.51757812 C-158.26513672 372.57912109 -158.26513672 372.57912109 -159.35009766 373.66210938 C-175.69057573 389.08822857 -195.13631241 393.05557879 -216.86962891 392.79101562 C-234.03256562 392.27959606 -249.56271359 384.97831781 -262.20166016 373.51757812 C-263.37341797 372.46763672 -263.37341797 372.46763672 -264.56884766 371.39648438 C-275.7809091 360.80731523 -282.26568147 347.26949824 -286.20166016 332.51757812 C-287.37083984 332.48019531 -288.54001953 332.4428125 -289.74462891 332.40429688 C-291.2928369 332.33861532 -292.84101258 332.27216874 -294.38916016 332.20507812 C-295.15808594 332.18251953 -295.92701172 332.15996094 -296.71923828 332.13671875 C-303.1050435 331.83524297 -306.44676218 330.35224419 -310.95166016 325.64257812 C-314.01071309 321.3938935 -314.32296053 317.81250587 -314.34692383 312.67749023 C-314.35330368 311.74138412 -314.35968353 310.80527802 -314.36625671 309.84080505 C-314.36736954 308.8356636 -314.36848236 307.83052216 -314.36962891 306.79492188 C-314.37462151 305.21198082 -314.37462151 305.21198082 -314.37971497 303.59706116 C-314.38477649 301.35694818 -314.38712353 299.11682767 -314.38696289 296.87670898 C-314.38911896 293.5192335 -314.40719753 290.16210353 -314.42626953 286.8046875 C-314.52418391 249.88994161 -308.23446814 216.29694927 -281.67041016 188.99414062 C-280.1818813 187.50090123 -278.69254614 186.00846411 -277.20166016 184.51757812 C-278.34441406 184.08058594 -278.34441406 184.08058594 -279.51025391 183.63476562 C-293.61918242 178.03346816 -305.08026618 169.94079385 -311.51416016 155.76757812 C-315.81553458 145.67659003 -316.13113166 131.68376691 -312.57666016 121.33007812 C-306.75875605 108.310992 -297.72300441 98.64896199 -284.39088535 93.20238876 C-275.00732898 90.26712233 -265.01531641 90.2265275 -255.2800293 90.25878906 C-253.94123648 90.25607019 -252.60244517 90.25250429 -251.26365662 90.24816895 C-247.66852156 90.23914817 -244.0735029 90.24254624 -240.47836614 90.24892712 C-236.68930484 90.25404221 -232.90025255 90.24928043 -229.1111908 90.24615479 C-222.75078571 90.24253058 -216.39042728 90.24727296 -210.0300293 90.25683594 C-202.71197486 90.2677128 -195.39403197 90.26419423 -188.07598025 90.25318313 C-181.75622141 90.24406033 -175.43649584 90.24284935 -169.11673254 90.24806046 C-165.35832644 90.2511535 -161.59997249 90.25166406 -157.8415699 90.24498749 C-154.30457874 90.23914158 -150.76772908 90.24334088 -147.23075294 90.254776 C-145.33943492 90.25861307 -143.44810471 90.25279898 -141.55679321 90.246521 C-121.84079574 90.34224258 -103.70570378 94.41973296 -88.95166016 108.26757812 C-77.10549279 120.86472952 -70.56202869 137.32370736 -70.95947266 154.56835938 C-71.68434577 163.39544325 -74.81213733 170.3173745 -81.20166016 176.51757812 C-85.01758416 179.2367096 -89.01825155 181.42587382 -93.20166016 183.51757812 C-92.91977844 184.4659832 -92.91977844 184.4659832 -92.63220215 185.43354797 C-90.68090394 192.00170183 -88.7352776 198.57151635 -86.79296875 205.14233398 C-86.06689103 207.59589191 -85.3393576 210.04901953 -84.61035156 212.50170898 C-83.5640573 216.02280948 -82.52297085 219.54541333 -81.48291016 223.06835938 C-81.15480347 224.16843826 -80.82669678 225.26851715 -80.48864746 226.40193176 C-80.18833618 227.42276352 -79.8880249 228.44359528 -79.57861328 229.49536133 C-79.1789032 230.84438286 -79.1789032 230.84438286 -78.77111816 232.22065735 C-78.20166016 234.51757812 -78.20166016 234.51757812 -78.20166016 237.51757812 C-58.07166016 237.51757812 -37.94166016 237.51757812 -17.20166016 237.51757812 C-17.22486328 231.183125 -17.24806641 224.84867188 -17.27197266 218.32226562 C-17.28220412 214.28450105 -17.29183296 210.2467527 -17.29931641 206.20898438 C-17.31122416 199.81458168 -17.32523797 193.42023683 -17.35253906 187.02587891 C-17.3744347 181.86465958 -17.38626369 176.70350237 -17.39141464 171.54224014 C-17.39508062 169.58329416 -17.40223837 167.62435117 -17.41312027 165.66543198 C-17.5407826 141.70884122 -14.48114502 118.96419523 0.79833984 99.51757812 C0.07388672 99.43121094 -0.65056641 99.34484375 -1.39697266 99.25585938 C-7.86587708 98.31571193 -11.71218686 97.35239553 -16.20166016 92.51757812 C-18.26084301 89.24581436 -18.43774264 86.70933129 -18.39697266 82.87695312 C-18.39052734 81.80703125 -18.38408203 80.73710937 -18.37744141 79.63476562 C-18.36068359 78.52359375 -18.34392578 77.41242188 -18.32666016 76.26757812 C-18.31763672 75.1409375 -18.30861328 74.01429688 -18.29931641 72.85351562 C-18.27576674 70.07465448 -18.24287695 67.29622423 -18.20166016 64.51757812 C-19.44254395 64.53852539 -20.68342773 64.55947266 -21.96191406 64.58105469 C-26.57996005 64.65363183 -31.19795592 64.69944233 -35.81640625 64.73730469 C-37.81258633 64.75737982 -39.8087079 64.78464602 -41.8046875 64.81933594 C-44.67934636 64.86803469 -47.55322555 64.89058799 -50.42822266 64.90820312 C-51.75981918 64.93917084 -51.75981918 64.93917084 -53.11831665 64.97076416 C-58.66275986 64.97275735 -61.80109212 64.21834851 -66.20166016 60.51757812 C-69.95258373 56.24928578 -70.55464451 52.32237371 -70.48291016 46.79882812 C-69.89942805 42.06613992 -67.06947949 39.32031101 -63.70166016 36.20507812 C-60.22328824 33.85717708 -57.310272 33.39060211 -53.16748047 33.40405273 C-51.99671967 33.40416603 -51.99671967 33.40416603 -50.80230713 33.40428162 C-49.96987488 33.4094429 -49.13744263 33.41460419 -48.27978516 33.41992188 C-47.41979919 33.42133682 -46.55981323 33.42275177 -45.67376709 33.42420959 C-42.93302907 33.42979716 -40.1923734 33.44234738 -37.45166016 33.45507812 C-35.59098425 33.46009473 -33.73030707 33.46465736 -31.86962891 33.46875 C-27.3136077 33.47976252 -22.75764788 33.49701861 -18.20166016 33.51757812 C-18.22260742 32.85226074 -18.24355469 32.18694336 -18.26513672 31.50146484 C-18.34866625 28.46532511 -18.40043619 25.42942769 -18.45166016 22.39257812 C-18.48517578 21.34585938 -18.51869141 20.29914063 -18.55322266 19.22070312 C-18.62995806 13.15860591 -18.55741846 9.1473742 -14.20166016 4.51757812 C-9.52131378 0.74398482 -5.86083929 -0.06369444 0 0 Z M12.79833984 31.51757812 C12.79833984 43.39757812 12.79833984 55.27757812 12.79833984 67.51757812 C20.08597409 67.60166621 27.37183223 67.68177677 34.65953064 67.72457886 C38.05383243 67.74562527 41.44772896 67.77370763 44.84179688 67.81933594 C48.7440863 67.86802505 52.64580136 67.89058741 56.54833984 67.90820312 C57.75385498 67.92884827 58.95937012 67.94949341 60.20141602 67.97076416 C67.70365844 67.9727514 73.66864861 67.47012922 79.34790039 62.03448486 C83.78405225 56.98636254 84.15235709 52.70636572 84.07568359 46.24023438 C83.53606614 40.94286299 80.51368095 38.02772619 76.67333984 34.70507812 C72.72944465 31.70428831 71.04454576 31.39365003 66.15527344 31.40405273 C64.97420013 31.40412827 63.79312683 31.4042038 62.57626343 31.40428162 C60.65591782 31.41202354 60.65591782 31.41202354 58.69677734 31.41992188 C56.73667221 31.4220443 56.73667221 31.4220443 54.73696899 31.42420959 C51.26157727 31.42802918 47.78622728 31.4378547 44.31085205 31.44891357 C40.7650205 31.4591397 37.219182 31.46376455 33.67333984 31.46875 C26.71496964 31.47894691 19.75671407 31.49851989 12.79833984 31.51757812 Z M29.97802734 114.20898438 C14.96632493 130.10847564 13.50177689 147.24240998 13.58507538 168.19836426 C13.59541449 171.32801228 13.5898425 174.45726896 13.57965088 177.58691406 C13.55186579 186.47663501 13.53917201 195.36612832 13.56835938 204.25585938 C13.58515519 209.71644557 13.57267737 215.17632473 13.54190826 220.63684082 C13.53583955 222.70348825 13.54057804 224.77019921 13.55678558 226.83679199 C13.65020139 239.26080863 13.65721075 249.50056196 5.17498779 259.41503906 C3.4712823 261.03138925 1.7886503 262.27558793 -0.20166016 263.51757812 C-0.77078125 263.8807312 -1.33990234 264.24388428 -1.92626953 264.61804199 C-9.62691332 268.69465303 -17.92291713 268.09724332 -26.38916016 268.04882812 C-28.05867742 268.05152775 -29.72819315 268.05541407 -31.39770508 268.0604248 C-34.88426796 268.06629779 -38.37041888 268.05782853 -41.85693359 268.0390625 C-46.30538227 268.01627394 -50.75286535 268.02940894 -55.20127869 268.05335236 C-58.64505162 268.06787029 -62.08859909 268.06317706 -65.53237915 268.05284119 C-67.17168291 268.05019042 -68.81100776 268.05338499 -70.45028687 268.0627594 C-82.1891501 268.11517245 -91.46965431 267.10527205 -100.28521729 258.62974548 C-106.79156553 251.45891008 -109.004635 241.31198518 -111.59228516 232.23242188 C-111.98537837 230.88120408 -112.37941848 229.53026144 -112.77435303 228.17958069 C-113.80139866 224.65937728 -114.81758937 221.13614243 -115.83081055 217.61193848 C-117.46343829 211.94011393 -119.112475 206.27304294 -120.7621994 200.60617256 C-121.33572086 198.63003991 -121.90433598 196.6525459 -122.472229 194.67478943 C-122.98846832 192.8914193 -122.98846832 192.8914193 -123.51513672 191.07202148 C-123.81760315 190.0207457 -124.12006958 188.96946991 -124.43170166 187.88633728 C-124.98098382 185.58695854 -124.98098382 185.58695854 -126.20166016 184.51757812 C-128.70325548 184.40120325 -131.17761543 184.3495807 -133.68041992 184.34057617 C-134.46441162 184.33400497 -135.24840332 184.32743378 -136.05615234 184.32066345 C-138.66845797 184.30085311 -141.28070542 184.28924028 -143.89306641 184.27929688 C-144.7878816 184.27522135 -145.6826968 184.27114582 -146.60462761 184.26694679 C-151.35628913 184.24603633 -156.10792149 184.23176586 -160.85961914 184.22241211 C-165.73122406 184.21143957 -170.60236048 184.17716225 -175.47380161 184.13724041 C-179.24636068 184.11084935 -183.01881301 184.10269972 -186.79145622 184.09913063 C-188.58409668 184.09430897 -190.37673384 184.08282412 -192.16928291 184.06409264 C-217.16647162 183.81948208 -238.39537939 190.95958389 -256.94775391 208.29101562 C-262.32369604 213.60173836 -266.70436573 218.80277282 -270.20166016 225.51757812 C-266.47006439 224.15088955 -263.35429709 222.40757928 -260.01416016 220.26757812 C-249.58767301 214.09416979 -237.20220005 210.15304993 -225.20166016 208.51757812 C-224.03183594 208.35322266 -224.03183594 208.35322266 -222.83837891 208.18554688 C-193.70673083 204.70089998 -164.1395444 212.42966158 -140.97631836 230.56982422 C-118.13966124 248.95760507 -108.12377964 272.8291002 -101.20166016 300.51757812 C-52.36166016 300.51757812 -3.52166016 300.51757812 46.79833984 300.51757812 C48.77833984 294.90757812 50.75833984 289.29757812 52.79833984 283.51757812 C57.44837464 274.30868569 64.1656621 263.35781237 73.39160156 258.01611328 C77.13310309 254.13190486 76.77883053 250.17398676 76.95458984 244.94726562 C76.99951065 243.84246353 77.04443146 242.73766144 77.0907135 241.59938049 C77.20841605 237.86311299 77.26268465 234.13050452 77.29833984 230.39257812 C77.31613495 229.10199493 77.33393005 227.81141174 77.3522644 226.48171997 C77.7311225 183.96190018 66.17729266 141.49750722 55.79833984 100.51757812 C46.19295984 100.51757812 36.6294912 107.74288919 29.97802734 114.20898438 Z M-280.07666016 127.20507812 C-282.87685623 131.57008965 -284.67446511 135.33362578 -283.89306641 140.59570312 C-282.23712077 145.98524047 -278.96138679 149.55938243 -274.20166016 152.51757812 C-270.60498539 153.7178257 -267.14979611 153.64066231 -263.38067627 153.63783264 C-262.69530533 153.63868707 -262.00993438 153.63954149 -261.30379462 153.64042181 C-259.00832994 153.64206831 -256.71293841 153.63656883 -254.41748047 153.63110352 C-252.7715912 153.63082144 -251.12570181 153.63097978 -249.47981262 153.63154602 C-245.01117273 153.63183319 -240.54255963 153.62594933 -236.07392597 153.61897206 C-231.40408272 153.61272527 -226.73423887 153.61213367 -222.06439209 153.61094666 C-213.22115234 153.60783726 -204.37792493 153.59962913 -195.53469062 153.58959717 C-185.46707646 153.57842389 -175.39946171 153.57292251 -165.3318429 153.56790173 C-144.62177509 153.55744621 -123.9117184 153.53985432 -103.20166016 153.51757812 C-101.61562058 146.32436541 -104.07373643 141.02919725 -107.82666016 134.83007812 C-112.57781684 128.05286709 -119.88473256 123.5599905 -127.99484444 121.96995926 C-131.08187567 121.53447596 -133.99322119 121.38638666 -137.10836792 121.37713623 C-138.26620789 121.37142609 -139.42404785 121.36571594 -140.61697388 121.35983276 C-142.50136673 121.35815598 -142.50136673 121.35815598 -144.42382812 121.35644531 C-145.77132298 121.35181178 -147.11881654 121.3467864 -148.46630859 121.34140015 C-152.11513394 121.32832832 -155.76394093 121.32184178 -159.41278601 121.31738949 C-161.69537061 121.31445116 -163.97795028 121.31034501 -166.26053238 121.30588531 C-173.41099869 121.29222601 -180.56145362 121.2825509 -187.71193206 121.27868342 C-195.95035789 121.27420215 -204.18861785 121.25664453 -212.42699325 121.22768283 C-218.80680772 121.20603724 -225.18657561 121.19597766 -231.5664264 121.19464231 C-235.3717406 121.19359662 -239.17689855 121.18773895 -242.98217392 121.16982269 C-246.56258529 121.15329136 -250.14272375 121.15121081 -253.72315979 121.1599617 C-255.65388989 121.16109364 -257.58461115 121.14741669 -259.51528931 121.13320923 C-267.55346599 121.17168505 -273.95350155 121.48125595 -280.07666016 127.20507812 Z M106.79833984 209.51757812 C106.79833984 220.07757813 106.79833984 230.63757813 106.79833984 241.51757812 C110.75833984 241.02257812 110.75833984 241.02257812 114.79833984 240.51757812 C116.59918643 240.44084547 118.40211535 240.39935879 120.20458984 240.40405273 C121.67520874 240.40416603 121.67520874 240.40416603 123.17553711 240.40428162 C124.72132446 240.41202354 124.72132446 240.41202354 126.29833984 240.41992188 C127.37462646 240.42133682 128.45091309 240.42275177 129.55981445 240.42420959 C132.9726854 240.42977433 136.38548897 240.44232025 139.79833984 240.45507812 C142.12255764 240.46009768 144.44677647 240.46465979 146.77099609 240.46875 C152.44680005 240.47973219 158.12256513 240.49643492 163.79833984 240.51757812 C156.21497287 224.49915892 147.1088504 216.3144447 130.52490234 210.33789062 C125.73949621 209.28449934 121.2396358 209.3019702 116.36083984 209.39257812 C111.62740234 209.45445312 111.62740234 209.45445312 106.79833984 209.51757812 Z M-263.85009766 261.75585938 C-273.64857156 273.26336943 -278.53018273 285.82445227 -281.20166016 300.51757812 C-232.36166016 300.51757812 -183.52166016 300.51757812 -133.20166016 300.51757812 C-135.85915977 281.91508085 -146.19341194 264.92402397 -161.16674805 253.56494141 C-193.63786611 229.9633108 -235.92332817 232.80954116 -263.85009766 261.75585938 Z M87.32177734 285.57617188 C78.7997319 296.43631697 74.78168028 308.38197881 76.04833984 322.25585938 C77.48417733 330.49910495 80.86144263 337.78544556 85.79833984 344.51757812 C86.52021484 345.50757813 87.24208984 346.49757813 87.98583984 347.51757812 C95.82703679 356.67763083 107.62828974 360.95999724 119.25537109 362.31835938 C131.23808885 362.99213954 142.64221407 358.56528673 151.98583984 351.08398438 C162.36495448 341.61304227 167.07098298 329.33735861 167.79833984 315.51757812 C167.05990257 302.71799869 161.52912417 290.66178325 152.17333984 281.83007812 C132.72669904 265.8414442 104.73583704 266.59059948 87.32177734 285.57617188 Z M-253.20166016 331.51757812 C-249.17614968 343.59410954 -241.65509382 351.76580635 -230.51416016 357.89257812 C-219.8128536 362.86298193 -208.55171741 363.67426896 -197.20166016 360.51757812 C-184.73256266 355.8942049 -174.87659147 347.64224687 -169.20166016 335.51757812 C-168.87166016 334.19757813 -168.54166016 332.87757813 -168.20166016 331.51757812 C-196.25166016 331.51757812 -224.30166016 331.51757812 -253.20166016 331.51757812 Z " fill="#000000" transform="translate(314.20166015625,81.482421875)"/>
<path d="M0 0 C1.400152 -0.00378732 2.80030024 -0.00929077 4.20043945 -0.01637268 C7.98765767 -0.03028964 11.77441967 -0.01918493 15.56161237 -0.00266147 C19.53195853 0.01122825 23.50227927 0.0047246 27.47264099 0.00120544 C34.13792236 -0.00149327 40.80302329 0.01195078 47.46826172 0.03515625 C55.16698737 0.06177485 62.86541164 0.0635084 70.56416756 0.05176789 C77.98110521 0.04097838 85.39793417 0.04718566 92.8148632 0.06132317 C95.96664954 0.06707171 99.11835604 0.06700924 102.27014351 0.06225777 C105.98275452 0.05747553 109.69503665 0.06764085 113.40758514 0.08921242 C115.41499258 0.09740497 117.42244315 0.09094173 119.42985535 0.08401489 C120.63121124 0.09391953 121.83256714 0.10382416 123.07032776 0.11402893 C124.63019079 0.11767377 124.63019079 0.11767377 126.2215662 0.12139225 C131.03051802 0.74094301 134.25536014 2.4842177 137.48608398 6.06420898 C140.91548141 11.01778304 140.78322459 15.58903022 140.17358398 21.50170898 C138.17118748 25.50650199 135.99359521 28.16041178 132.17358398 30.50170898 C129.01362086 31.55503003 126.78100701 31.63262747 123.46232605 31.64215088 C121.67693169 31.65071609 121.67693169 31.65071609 119.85546875 31.65945435 C118.54787598 31.6605722 117.2402832 31.66169006 115.89306641 31.6628418 C114.50336068 31.66747067 113.11365622 31.67249542 111.72395325 31.67788696 C107.94698946 31.69100663 104.17004345 31.69745511 100.39306045 31.70189762 C98.03295067 31.70482914 95.67284575 31.70893411 93.31273842 31.71340179 C85.92733412 31.7270758 78.54194092 31.73674284 71.15652484 31.74060369 C62.6333587 31.74508387 54.11035299 31.76263025 45.58723563 31.79160428 C38.99774827 31.8132268 32.40830603 31.82330827 25.81878358 31.8246448 C21.88382285 31.82569246 17.94901294 31.83159171 14.01408958 31.84946442 C10.31143124 31.86595496 6.60903691 31.86809596 2.9063549 31.85932541 C0.90364538 31.85818911 -1.09905543 31.87189902 -3.10171509 31.88607788 C-4.89979866 31.87772415 -4.89979866 31.87772415 -6.73420715 31.86920166 C-7.77193677 31.87066822 -8.80966639 31.87213478 -9.87884235 31.87364578 C-14.65373334 31.27113067 -18.6615093 29.32553568 -21.63891602 25.50170898 C-24.87035307 21.07002387 -25.27010369 17.91469864 -24.82641602 12.50170898 C-23.19950002 7.24853444 -21.11679718 4.0815219 -16.17834663 1.35906792 C-11.02142378 -0.52080636 -5.41880868 -0.04021986 0 0 Z " fill="#000000" transform="translate(24.826416015625,98.498291015625)"/>
<path d="M0 0 C1.84210304 -0.01723618 1.84210304 -0.01723618 3.72142029 -0.03482056 C5.08990397 -0.04244596 6.45838851 -0.04991757 7.82687378 -0.05725098 C9.26244871 -0.06842427 10.69802102 -0.07993753 12.1335907 -0.09176636 C16.85667277 -0.12835687 21.5797817 -0.15355139 26.302948 -0.1763916 C27.10663236 -0.18033747 27.91031672 -0.18428333 28.73835516 -0.18834877 C36.31943444 -0.22477512 43.90052301 -0.25621801 51.48166084 -0.27745819 C61.17550041 -0.3050189 70.86860713 -0.35575048 80.56214154 -0.43793249 C87.37922827 -0.4937674 94.19611649 -0.52270063 101.0134238 -0.5319314 C105.08402714 -0.53818323 109.15377167 -0.55625182 113.22412491 -0.60331726 C117.05757198 -0.64709269 120.88969396 -0.65743998 124.72334862 -0.64268875 C126.12619665 -0.64301654 127.52910293 -0.65522648 128.93172264 -0.68053818 C140.81771244 -0.88361513 140.81771244 -0.88361513 146.06829834 3.53051758 C149.59808725 7.09754447 150.39231566 10.08982063 150.4826355 15.0423584 C150.41767419 20.62903101 148.9118888 23.27819844 145.2326355 27.4173584 C141.8092056 30.41285956 138.73872322 30.29701533 134.36952209 30.31452942 C133.14560257 30.32168472 131.92168304 30.32884003 130.66067505 30.33621216 C129.30209376 30.33905236 127.9435122 30.3417641 126.58493042 30.34436035 C125.15581599 30.35062603 123.72670319 30.35727292 122.29759216 30.36427307 C117.60277437 30.38530165 112.9079563 30.39567361 108.21310425 30.40563965 C106.59642329 30.40968751 104.97974251 30.41380444 103.3630619 30.41798973 C95.76835767 30.43703793 88.17366314 30.45127033 80.57893962 30.4596017 C71.81348727 30.46937632 63.04828729 30.4957031 54.28292388 30.53610259 C47.50660271 30.56626252 40.7303539 30.58107041 33.95396692 30.58438271 C29.90717229 30.58673316 25.8606474 30.59569271 21.81392479 30.62084389 C18.00615574 30.644128 14.19883398 30.64835675 10.39101219 30.6380825 C8.99542757 30.63758712 7.59982091 30.64390834 6.20430374 30.65763855 C-6.85597201 30.77892138 -6.85597201 30.77892138 -11.7673645 26.1673584 C-15.31317486 22.13247075 -16.07096629 18.60074431 -15.98220825 13.22595215 C-15.50543476 8.65759522 -13.54173564 5.86618114 -10.2048645 2.8548584 C-6.47908258 0.27547092 -4.51834533 0.03444186 0 0 Z " fill="#000000" transform="translate(65.76736450195313,37.8326416015625)"/>
<path d="M0 0 C4.49489838 2.33068805 6.73648361 4.51798033 9 9 C9.96812872 14.08618348 10.20007869 18.98111762 7.5 23.5234375 C2.05079638 29.81272668 2.05079638 29.81272668 -2.609375 30.23828125 C-13.26714553 30.49014399 -13.26714553 30.49014399 -18 26 C-21.39851638 21.8983423 -22.27917455 17.23452275 -22 12 C-20.68232687 7.32226038 -18.73701875 4.58660676 -14.9375 1.5625 C-9.60636639 -1.27320937 -5.78891854 -1.27653075 0 0 Z " fill="#000000" transform="translate(442,383)"/>
</svg>
