<svg width="32" height="33" viewBox="0 0 32 33" fill="none" xmlns="http://www.w3.org/2000/svg">
<path d="M27.71 4.78977C27.575 4.65544 27.4045 4.56244 27.2185 4.5217C27.0325 4.48095 26.8388 4.49416 26.66 4.55977L4.66 12.5598C4.47027 12.6317 4.30692 12.7597 4.19165 12.9267C4.07638 13.0937 4.01465 13.2918 4.01465 13.4948C4.01465 13.6977 4.07638 13.8958 4.19165 14.0628C4.30692 14.2298 4.47027 14.3578 4.66 14.4298L13.25 17.8598L19.59 11.4998L21 12.9098L14.63 19.2798L18.07 27.8698C18.1441 28.0558 18.2724 28.2154 18.4382 28.3277C18.604 28.44 18.7997 28.5 19 28.4998C19.2021 28.4956 19.3982 28.4303 19.5624 28.3125C19.7266 28.1947 19.8513 28.0299 19.92 27.8398L27.92 5.83977C27.9881 5.66285 28.0046 5.4702 27.9674 5.28429C27.9302 5.09839 27.8409 4.92688 27.71 4.78977Z" fill="#34C759"/>
</svg>
