<svg width="20" height="20" viewBox="0 0 20 20" fill="none" xmlns="http://www.w3.org/2000/svg">
<path d="M11.0625 2.73117C11.3022 2.88225 11.5035 3.08729 11.7088 3.28095C11.8181 3.38321 11.9314 3.4784 12.0483 3.57178C12.2715 3.7509 12.4786 3.94521 12.6872 4.14078C12.8697 4.31177 13.0585 4.47467 13.2489 4.63669C13.5162 4.86446 13.7789 5.09586 14.0369 5.33417C14.2134 5.49668 14.3946 5.65339 14.5773 5.80887C14.8224 6.01766 15.0639 6.22887 15.2998 6.44804C15.4225 6.56123 15.5485 6.66811 15.6787 6.77246C15.9026 6.95257 16.1106 7.14756 16.32 7.3439C16.5025 7.51489 16.6913 7.67779 16.8817 7.83981C17.1291 8.05062 17.3738 8.26334 17.6121 8.48436C17.7201 8.58439 17.8297 8.68165 17.9419 8.77686C18.2809 9.07428 18.5216 9.40498 18.564 9.86694C18.5767 10.3657 18.4263 10.7281 18.0946 11.0918C17.9228 11.2707 17.7349 11.4247 17.5417 11.5797C17.4037 11.6949 17.2722 11.8156 17.1411 11.9385C17.1175 11.9606 17.0939 11.9827 17.0696 12.0055C17.0467 12.0269 17.0239 12.0484 17.0003 12.0705C16.8178 12.2415 16.629 12.4044 16.4386 12.5664C16.1713 12.7941 15.9086 13.0256 15.6506 13.2639C15.4741 13.4264 15.2929 13.5831 15.1102 13.7386C14.8853 13.9301 14.6623 14.1226 14.4458 14.3237C14.3042 14.4553 14.1597 14.5812 14.0088 14.7022C13.785 14.8823 13.5769 15.0773 13.3675 15.2736C13.185 15.4446 12.9962 15.6075 12.8058 15.7695C12.5386 15.9972 12.276 16.2285 12.0181 16.4667C11.8815 16.5925 11.7428 16.7153 11.6016 16.8359C11.5627 16.8692 11.5238 16.9024 11.4838 16.9366C11.4417 16.9723 11.3996 17.0079 11.3574 17.0435C11.3186 17.0763 11.2797 17.1092 11.2396 17.1431C11.0499 17.2913 10.9236 17.3225 10.685 17.3169C10.4749 17.291 10.3515 17.1977 10.2197 17.0313C10.1137 16.8355 10.1117 16.6659 10.1128 16.446C10.1128 16.4148 10.1127 16.3835 10.1127 16.3513C10.1128 16.2482 10.1131 16.145 10.1134 16.0419C10.1134 15.9703 10.1135 15.8987 10.1135 15.8271C10.1137 15.6388 10.1141 15.4505 10.1145 15.2622C10.1149 15.07 10.1151 14.8779 10.1153 14.6857C10.1157 14.3087 10.1164 13.9317 10.1172 13.5547C7.41868 13.6454 4.84588 13.8058 2.85462 15.8487C2.67155 16.049 2.50232 16.261 2.33857 16.4772C2.0763 16.8197 2.0763 16.8197 1.875 16.875C1.66628 16.8991 1.50183 16.9027 1.31104 16.8091C1.16277 16.6753 1.05426 16.5658 1.01563 16.3672C0.896596 13.6627 1.68222 10.9915 3.51303 8.97949C3.70565 8.77995 3.92381 8.60971 4.14063 8.4375C4.1793 8.40598 4.21797 8.37446 4.25782 8.34198C4.93179 7.80449 5.71625 7.4061 6.52344 7.10938C6.54906 7.09982 6.57469 7.09027 6.60109 7.08042C7.32016 6.81566 8.0681 6.65704 8.82569 6.55029C8.89146 6.54096 8.89146 6.54096 8.95856 6.53143C9.22696 6.49622 9.49362 6.4762 9.76388 6.46299C9.798 6.46126 9.83211 6.45953 9.86726 6.45775C9.95057 6.45353 10.0339 6.44941 10.1172 6.44531C10.1168 6.38616 10.1168 6.38616 10.1164 6.32581C10.114 5.95341 10.1123 5.58101 10.1111 5.2086C10.1105 5.01716 10.1097 4.82572 10.1084 4.63429C10.1071 4.44939 10.1064 4.26451 10.1061 4.07961C10.1059 4.00922 10.1054 3.93882 10.1048 3.86844C10.1039 3.76952 10.1038 3.67062 10.1039 3.5717C10.1035 3.54287 10.103 3.51405 10.1026 3.48434C10.1039 3.26477 10.1376 3.03681 10.2897 2.86842C10.508 2.67969 10.7904 2.61759 11.0625 2.73117ZM11.4063 4.76563C11.4061 4.79478 11.406 4.82394 11.4058 4.85398C11.4043 5.12983 11.4021 5.40565 11.3991 5.68148C11.3975 5.82326 11.3963 5.96503 11.3957 6.10682C11.3951 6.24385 11.3937 6.38086 11.3919 6.51789C11.391 6.59517 11.3909 6.67245 11.3908 6.74974C11.3863 7.03049 11.3645 7.22315 11.2109 7.46094C11.1328 7.53281 11.1328 7.53281 11.0547 7.57569C11.0289 7.59054 11.0031 7.60539 10.9766 7.6207C10.8141 7.69465 10.6595 7.70281 10.482 7.71073C10.4292 7.7133 10.3765 7.71591 10.3237 7.71855C10.296 7.71992 10.2683 7.72128 10.2398 7.72268C8.04861 7.8341 5.87005 8.41636 4.3013 10.0371C4.2321 10.114 4.16651 10.1929 4.10157 10.2734C4.0715 10.3103 4.04144 10.3472 4.01047 10.3851C3.10486 11.5154 2.55243 12.975 2.42188 14.4141C2.56244 14.3475 2.66374 14.2658 2.78077 14.1626C4.268 12.8916 6.2579 12.4518 8.16407 12.3438C8.21816 12.3404 8.21816 12.3404 8.27336 12.3371C8.8064 12.3057 9.34034 12.2991 9.8742 12.2957C9.94612 12.2952 10.018 12.2945 10.09 12.2936C10.1919 12.2924 10.2938 12.292 10.3957 12.2919C10.426 12.2914 10.4563 12.2909 10.4875 12.2904C10.7465 12.2914 10.9598 12.3439 11.1646 12.5122C11.3166 12.6991 11.3816 12.856 11.3841 13.0969C11.3849 13.1446 11.3856 13.1923 11.3864 13.2414C11.3868 13.3178 11.3868 13.3178 11.3872 13.3957C11.3878 13.4488 11.3885 13.5019 11.3893 13.555C11.3912 13.694 11.3923 13.8331 11.3933 13.9722C11.3945 14.1144 11.3963 14.2566 11.3981 14.3988C11.4014 14.6773 11.4041 14.9558 11.4063 15.2344C11.4554 15.1981 11.5045 15.1617 11.5535 15.1253C11.5809 15.1051 11.6082 15.0848 11.6364 15.064C11.7671 14.9624 11.8852 14.8486 12.0044 14.7339C12.2044 14.5442 12.4087 14.3654 12.6242 14.1933C12.8084 14.04 12.9812 13.8746 13.156 13.7108C13.3384 13.5398 13.5272 13.3769 13.7177 13.2149C13.985 12.9871 14.2477 12.7557 14.5056 12.5174C14.6822 12.3549 14.8634 12.1982 15.0461 12.0427C15.271 11.8511 15.494 11.6586 15.7105 11.4575C15.8521 11.3259 15.9966 11.2 16.1475 11.0791C16.3463 10.9191 16.5328 10.7483 16.7184 10.5732C16.8652 10.4349 17.0148 10.3028 17.1736 10.1782C17.2465 10.0942 17.26 10.0322 17.2656 9.92188C17.2265 9.85134 17.2265 9.85134 17.1582 9.79492C17.1199 9.75973 17.1199 9.75973 17.0808 9.72382C16.9502 9.61276 16.8168 9.5053 16.6832 9.39789C16.5463 9.28544 16.4179 9.16441 16.2891 9.04297C16.1305 8.89366 15.971 8.74944 15.8008 8.61328C15.5783 8.43514 15.3721 8.24151 15.1643 8.04672C14.9819 7.87574 14.7931 7.71284 14.6027 7.55081C14.3353 7.32304 14.0727 7.09164 13.8147 6.85333C13.6382 6.69082 13.457 6.53411 13.2742 6.37863C13.007 6.151 12.7444 5.91967 12.4866 5.68146C12.3501 5.55578 12.2109 5.43357 12.0703 5.3125C12.0384 5.28488 12.0384 5.28488 12.0058 5.25669C11.9322 5.19302 11.8584 5.12946 11.7847 5.06592C11.7608 5.04528 11.7369 5.02464 11.7123 5.00337C11.6896 4.98388 11.6669 4.96439 11.6435 4.94431C11.6131 4.91807 11.6131 4.91807 11.582 4.89131C11.5261 4.8459 11.4662 4.80557 11.4063 4.76563Z" fill="black" fill-opacity="0.75"/>
</svg>
