<svg width="20" height="20" viewBox="0 0 20 20" fill="none" xmlns="http://www.w3.org/2000/svg">
<path d="M14.6484 1.64044C14.6725 1.65801 14.6965 1.67559 14.7212 1.69369C15.2233 2.08887 15.4238 2.70543 15.5347 3.31036C15.6733 4.75015 15.1023 6.21867 14.3689 7.43304C14.348 7.46766 14.3272 7.50227 14.3057 7.53794C14.2899 7.56403 14.2741 7.59012 14.2578 7.617C14.3036 7.61722 14.3036 7.61722 14.3503 7.61743C14.6404 7.61892 14.9305 7.62116 15.2206 7.62419C15.3697 7.62572 15.5188 7.62698 15.6679 7.62759C15.8122 7.62819 15.9566 7.62955 16.101 7.63139C16.1555 7.63196 16.2101 7.63228 16.2647 7.63231C17.0277 7.63324 17.6969 7.85952 18.2812 8.35919C18.3158 8.38464 18.3158 8.38464 18.351 8.41061C18.8452 8.78774 19.1256 9.4417 19.2187 10.0389C19.2408 10.4074 19.202 10.7542 19.1322 11.1153C19.123 11.1651 19.1138 11.215 19.1043 11.2663C19.0793 11.4013 19.0537 11.5363 19.028 11.6712C19.0009 11.8138 18.9743 11.9565 18.9477 12.0992C18.9029 12.3389 18.8577 12.5787 18.8122 12.8183C18.7601 13.0931 18.7085 13.368 18.6572 13.6429C18.602 13.9385 18.5465 14.2339 18.4908 14.5294C18.4751 14.6131 18.4594 14.6969 18.4437 14.7807C17.9022 17.6687 17.9022 17.6687 16.794 18.4869C16.3522 18.7742 15.8881 18.9122 15.3622 18.9116C15.3326 18.9117 15.303 18.9118 15.2724 18.9119C15.1735 18.9122 15.0745 18.9123 14.9756 18.9124C14.9045 18.9125 14.8334 18.9127 14.7622 18.9129C14.5693 18.9135 14.3763 18.9137 14.1833 18.9139C14.0625 18.914 13.9418 18.9142 13.821 18.9143C13.4427 18.9149 13.0643 18.9152 12.686 18.9154C12.2502 18.9156 11.8145 18.9163 11.3788 18.9174C11.0413 18.9182 10.7039 18.9186 10.3665 18.9187C10.1653 18.9187 9.96405 18.9189 9.76283 18.9196C9.57327 18.9203 9.38373 18.9204 9.19417 18.92C9.12498 18.92 9.0558 18.9202 8.98661 18.9206C8.27414 18.9243 7.62762 18.8231 7.04117 18.3845C6.9498 18.3177 6.85559 18.2598 6.75781 18.2029C6.73878 18.2251 6.71974 18.2474 6.70013 18.2702C6.3444 18.6577 5.88763 18.8868 5.35885 18.9136C5.1747 18.918 4.99055 18.918 4.80636 18.9178C4.73792 18.918 4.66949 18.9181 4.60105 18.9183C4.458 18.9186 4.31495 18.9186 4.17189 18.9184C3.98974 18.9182 3.80759 18.9188 3.62544 18.9197C3.48418 18.9203 3.34292 18.9203 3.20166 18.9202C3.13456 18.9202 3.06746 18.9204 3.00036 18.9208C2.35657 18.9242 1.79348 18.8447 1.29638 18.3909C0.785357 17.8312 0.763761 17.1988 0.766083 16.4836C0.765924 16.4011 0.765715 16.3186 0.765461 16.2361C0.764929 16.0132 0.765133 15.7903 0.765505 15.5673C0.765803 15.3335 0.765527 15.0996 0.765343 14.8657C0.76513 14.4731 0.76541 14.0805 0.765969 13.6879C0.766607 13.2346 0.766399 12.7814 0.765754 12.3282C0.765222 11.9382 0.765149 11.5483 0.765455 11.1583C0.765637 10.9258 0.765663 10.6932 0.765275 10.4607C0.764935 10.2421 0.765173 10.0234 0.765848 9.80479C0.766003 9.72478 0.76596 9.64478 0.765701 9.56477C0.763777 8.91128 0.821104 8.31224 1.28906 7.81231C1.67836 7.47635 2.07622 7.29935 2.58851 7.29759C2.62099 7.29733 2.65347 7.29707 2.68693 7.29681C2.79435 7.29604 2.90176 7.29558 3.00918 7.29519C3.046 7.29504 3.08281 7.29488 3.12074 7.29471C3.31575 7.2939 3.51076 7.29334 3.70577 7.29297C3.90638 7.29254 4.10696 7.2912 4.30756 7.28965C4.46249 7.28862 4.61742 7.2883 4.77235 7.28816C4.84624 7.28797 4.92014 7.28752 4.99403 7.28679C5.73756 7.27992 5.73756 7.27992 6.09375 7.46075C6.12888 7.47854 6.16402 7.49632 6.20022 7.51465C6.62486 7.74024 6.83951 8.0862 7.03125 8.51544C7.07284 8.48056 7.11432 8.44553 7.15576 8.41046C7.19043 8.38123 7.19043 8.38123 7.2258 8.35141C7.29903 8.2861 7.36869 8.21834 7.43767 8.14859C7.5181 8.0675 7.59926 7.98717 7.68036 7.90677C7.74882 7.83866 7.81728 7.77056 7.88574 7.70245C7.91983 7.66869 7.95392 7.63493 7.98904 7.60014C8.18604 7.40388 8.37468 7.20392 8.55468 6.992C8.59133 6.94971 8.628 6.90744 8.6647 6.8652C9.36332 6.055 10.0186 5.2175 10.625 4.33575C10.6442 4.30789 10.6633 4.28002 10.6831 4.25131C11.226 3.45802 11.7085 2.63242 12.1219 1.76404C12.1356 1.73547 12.1494 1.70691 12.1635 1.67748C12.1882 1.62578 12.2124 1.57384 12.2359 1.52161C12.329 1.32607 12.4519 1.18176 12.6581 1.1015C13.37 1.02746 14.0763 1.20999 14.6484 1.64044ZM13.2812 2.42169C13.2695 2.44343 13.2578 2.46516 13.2457 2.48756C13.1236 2.71313 13.0007 2.93823 12.8773 3.16302C12.837 3.2364 12.7969 3.30985 12.7569 3.38339C11.7694 5.19565 10.4572 6.8651 9.04922 8.36787C8.97805 8.44408 8.90736 8.52073 8.83667 8.59738C8.49652 8.96453 8.1439 9.31187 7.77343 9.64825C7.73211 9.68617 7.69081 9.72411 7.64953 9.76208C7.35332 10.0335 7.35332 10.0335 7.22232 10.1074C7.13171 10.1838 7.11097 10.2261 7.08779 10.344C7.07956 10.4917 7.07902 10.6384 7.0809 10.7862C7.08078 10.8431 7.08055 10.9 7.08023 10.957C7.07966 11.1115 7.08056 11.2659 7.08175 11.4204C7.08278 11.5826 7.08257 11.7447 7.08253 11.9068C7.08264 12.1793 7.08365 12.4519 7.08525 12.7244C7.08709 13.0385 7.08771 13.3525 7.08763 13.6665C7.08755 14.0019 7.08837 14.3372 7.08944 14.6726C7.08969 14.7686 7.08977 14.8647 7.08982 14.9607C7.08994 15.1126 7.09066 15.2644 7.09183 15.4163C7.09217 15.4716 7.09232 15.5269 7.09225 15.5823C7.09185 16.1046 7.15018 16.5609 7.46093 16.992C7.48813 17.0299 7.48813 17.0299 7.51587 17.0686C7.76455 17.385 8.08502 17.5475 8.47656 17.617C8.707 17.6336 8.93662 17.6335 9.16755 17.6328C9.23658 17.633 9.3056 17.6333 9.37462 17.6336C9.56098 17.6343 9.74732 17.6343 9.93368 17.634C10.0897 17.6339 10.2457 17.6341 10.4017 17.6344C10.7698 17.6349 11.138 17.6349 11.5061 17.6344C11.8851 17.634 12.2641 17.6345 12.643 17.6356C12.9693 17.6364 13.2955 17.6367 13.6218 17.6365C13.8162 17.6363 14.0107 17.6364 14.2052 17.6371C14.3881 17.6377 14.5709 17.6376 14.7538 17.6368C14.8207 17.6367 14.8875 17.6368 14.9544 17.6372C15.4777 17.6402 15.8889 17.5874 16.2781 17.2081C16.7437 16.6914 16.899 16.0222 17.0195 15.3567C17.032 15.2903 17.0445 15.2238 17.0571 15.1574C17.0903 14.981 17.1228 14.8045 17.1552 14.628C17.189 14.4445 17.2234 14.2611 17.2577 14.0777C17.3128 13.7829 17.3675 13.4879 17.4221 13.193C17.4871 12.8415 17.5534 12.4903 17.6203 12.1392C17.6557 11.9538 17.6908 11.7684 17.7259 11.583C17.7444 11.4852 17.7631 11.3875 17.7818 11.2898C17.8073 11.1559 17.8325 11.0219 17.8577 10.8879C17.8651 10.8495 17.8725 10.8111 17.8801 10.7716C17.9506 10.3913 17.9554 10.0782 17.7734 9.72638C17.4923 9.33562 17.1125 9.0532 16.6406 8.94513C16.3981 8.92033 16.1537 8.92396 15.9103 8.92495C15.7872 8.92545 15.6642 8.925 15.5412 8.92433C15.3245 8.92329 15.1077 8.92307 14.891 8.92312C14.5437 8.92321 14.1965 8.92265 13.8492 8.92095C13.7284 8.92057 13.6076 8.92091 13.4868 8.92129C13.4123 8.92105 13.3379 8.92078 13.2635 8.92048C13.2303 8.92078 13.197 8.92108 13.1627 8.92139C12.9426 8.91954 12.7789 8.8811 12.5781 8.78888C12.4308 8.63782 12.3768 8.50679 12.3657 8.29815C12.3709 7.99766 12.537 7.80084 12.7119 7.56909C13.4701 6.56381 14.1834 5.26921 14.2578 3.98419C14.2599 3.95146 14.2619 3.91873 14.2641 3.88501C14.2783 3.45594 14.206 3.01928 13.9062 2.69513C13.7135 2.53272 13.5231 2.47798 13.2812 2.42169ZM2.17773 8.80841C2.0561 8.98217 2.0646 9.14162 2.06482 9.34571C2.06471 9.37898 2.06459 9.41225 2.06447 9.44654C2.06413 9.55845 2.06407 9.67036 2.06402 9.78227C2.06383 9.86234 2.06364 9.94241 2.06343 10.0225C2.06291 10.2403 2.06266 10.4581 2.06249 10.676C2.06237 10.812 2.06221 10.948 2.06204 11.0841C2.06151 11.5095 2.06113 11.935 2.06098 12.3604C2.0608 12.8518 2.06012 13.3433 2.05899 13.8347C2.05814 14.2143 2.05775 14.594 2.05769 14.9736C2.05765 15.2005 2.05742 15.4273 2.05673 15.6542C2.05608 15.8675 2.056 16.0809 2.05634 16.2943C2.05637 16.3726 2.0562 16.4509 2.05581 16.5293C2.05532 16.6362 2.05555 16.7431 2.05595 16.85C2.05564 16.881 2.05532 16.912 2.055 16.9439C2.05668 17.1316 2.08516 17.2585 2.1875 17.4217C2.38022 17.6 2.5172 17.6219 2.77493 17.6233C2.80277 17.6235 2.8306 17.6237 2.85928 17.6239C2.95136 17.6245 3.04344 17.6247 3.13553 17.6249C3.1996 17.6252 3.26368 17.6254 3.32776 17.6256C3.46217 17.626 3.59657 17.6263 3.73097 17.6264C3.90291 17.6266 4.07484 17.6275 4.24677 17.6287C4.37918 17.6294 4.51158 17.6296 4.64398 17.6296C4.70735 17.6298 4.77072 17.6301 4.83409 17.6306C4.92291 17.6313 5.0117 17.6312 5.10052 17.6309C5.151 17.6311 5.20148 17.6312 5.25349 17.6314C5.45415 17.6104 5.58049 17.5491 5.71533 17.3997C5.83077 17.233 5.8261 17.1036 5.82606 16.9059C5.8262 16.8724 5.82635 16.8389 5.82649 16.8043C5.82693 16.6913 5.82708 16.5783 5.82722 16.4652C5.82747 16.3845 5.82773 16.3037 5.828 16.2229C5.82868 16.003 5.82909 15.7831 5.82942 15.5631C5.82962 15.4258 5.82985 15.2884 5.8301 15.1511C5.83084 14.7215 5.8314 14.292 5.83173 13.8624C5.83211 13.3663 5.83314 12.8701 5.83471 12.3739C5.83589 11.9907 5.83647 11.6074 5.8366 11.2242C5.83669 10.9951 5.83704 10.7661 5.83802 10.5371C5.83893 10.3216 5.8391 10.1062 5.8387 9.89067C5.83868 9.8116 5.83893 9.73254 5.83946 9.65348C5.84015 9.54545 5.83988 9.43747 5.83936 9.32945C5.83979 9.29823 5.84022 9.26701 5.84066 9.23485C5.83816 9.01706 5.78793 8.89066 5.66406 8.71075C5.51126 8.5824 5.36588 8.57672 5.17357 8.5784C5.12999 8.57809 5.12999 8.57809 5.08553 8.57778C4.98987 8.57727 4.89424 8.5776 4.79858 8.578C4.73189 8.57792 4.6652 8.57781 4.59851 8.57766C4.45889 8.57749 4.31928 8.57774 4.17967 8.57829C4.00089 8.57895 3.82214 8.57857 3.64337 8.57787C3.5057 8.57745 3.36804 8.57758 3.23038 8.57788C3.16447 8.57796 3.09856 8.57787 3.03265 8.57759C2.94046 8.57729 2.8483 8.57775 2.75612 8.5784C2.729 8.57816 2.70188 8.57793 2.67394 8.57768C2.44869 8.58063 2.32674 8.64285 2.17773 8.80841Z" fill="black" fill-opacity="0.75"/>
</svg>
